G04*
G04 #@! TF.GenerationSoftware,Altium Limited,Altium Designer,24.2.2 (26)*
G04*
G04 Layer_Color=65535*
%FSLAX44Y44*%
%MOMM*%
G71*
G04*
G04 #@! TF.SameCoordinates,CC1128A4-4406-4156-BFDA-932D597DC64E*
G04*
G04*
G04 #@! TF.FilePolarity,Positive*
G04*
G01*
G75*
%ADD10C,0.2500*%
%ADD11C,0.4000*%
%ADD12C,0.6000*%
%ADD13C,0.1500*%
%ADD14C,0.2000*%
%ADD15C,0.3000*%
%ADD16R,0.5000X1.3050*%
%ADD17R,1.5000X0.5550*%
G04:AMPARAMS|DCode=18|XSize=1.305mm|YSize=0.5mm|CornerRadius=0mm|HoleSize=0mm|Usage=FLASHONLY|Rotation=225.000|XOffset=0mm|YOffset=0mm|HoleType=Round|Shape=Rectangle|*
%AMROTATEDRECTD18*
4,1,4,0.2846,0.6382,0.6382,0.2846,-0.2846,-0.6382,-0.6382,-0.2846,0.2846,0.6382,0.0*
%
%ADD18ROTATEDRECTD18*%

G04:AMPARAMS|DCode=19|XSize=0.555mm|YSize=1.5mm|CornerRadius=0mm|HoleSize=0mm|Usage=FLASHONLY|Rotation=225.000|XOffset=0mm|YOffset=0mm|HoleType=Round|Shape=Rectangle|*
%AMROTATEDRECTD19*
4,1,4,-0.3341,0.7266,0.7266,-0.3341,0.3341,-0.7266,-0.7266,0.3341,-0.3341,0.7266,0.0*
%
%ADD19ROTATEDRECTD19*%

D10*
X413950Y267100D02*
G03*
X413950Y267100I-1250J0D01*
G01*
X160550Y63700D02*
G03*
X160550Y63700I-1250J0D01*
G01*
X470848Y267301D02*
G03*
X470848Y267301I-1250J0D01*
G01*
X646500Y386450D02*
G03*
X646500Y386450I-1250J0D01*
G01*
X442950Y343500D02*
G03*
X442950Y343500I-1250J0D01*
G01*
X482992Y400762D02*
G03*
X483032Y398461I508J-1142D01*
G01*
X616500Y284250D02*
G03*
X615250Y285500I0J1250D01*
G01*
X352633Y507028D02*
G03*
X350972Y505367I-1133J-528D01*
G01*
X504878Y628817D02*
G03*
X503217Y630478I-528J1133D01*
G01*
D11*
X493000Y405500D02*
G03*
X493000Y405500I-2000J0D01*
G01*
D12*
X606500Y272500D02*
G03*
X606500Y272500I-3000J0D01*
G01*
X367000Y494000D02*
G03*
X367000Y494000I-3000J0D01*
G01*
D13*
X387300Y193440D02*
X387300Y213760D01*
X389840Y216300D01*
X387300Y193440D02*
X389840Y190900D01*
X412700Y213760D02*
X412700Y193440D01*
X410180Y216280D02*
X412700Y213760D01*
X410160Y190900D02*
X412700Y193440D01*
X389840Y190900D02*
X410160D01*
X387300Y264560D02*
X387300Y244240D01*
X387300Y264560D02*
X389840Y267100D01*
Y267103D02*
X410180Y267080D01*
X387300Y244240D02*
X389840Y241700D01*
X412700Y244240D02*
X412700Y264560D01*
X410180Y267080D02*
X412700Y264560D01*
X410160Y241700D02*
X412700Y244240D01*
X410160Y216300D02*
X412700Y218840D01*
X410180Y241680D02*
X412700Y239160D01*
Y218840D02*
Y239160D01*
X387300Y218840D02*
X389840Y216300D01*
X387300Y239160D02*
X389840Y241700D01*
X387300Y218840D02*
Y239160D01*
X263440Y38300D02*
X283760D01*
X260900Y40840D02*
X263440Y38300D01*
X283760D02*
X286300Y40840D01*
X263440Y63700D02*
X283760D01*
X260920Y61180D02*
X263440Y63700D01*
X283760D02*
X286300Y61160D01*
X309160Y63700D02*
X311700Y61160D01*
X286320Y61180D02*
X288840Y63700D01*
X309160D01*
Y38300D02*
X311700Y40840D01*
Y61160D01*
X286300Y40840D02*
X288840Y38300D01*
X309160D01*
X212640D02*
X232960D01*
X210100Y40840D02*
X212640Y38300D01*
X232960D02*
X235500Y40840D01*
X212640Y63700D02*
X232960D01*
X210120Y61180D02*
X212640Y63700D01*
X232960D02*
X235500Y61160D01*
X258360Y63700D02*
X260900Y61160D01*
X235520Y61180D02*
X238040Y63700D01*
X258360D01*
Y38300D02*
X260900Y40840D01*
X235500D02*
X238040Y38300D01*
X258360D01*
X161840D02*
X182160D01*
X159300Y40840D02*
X161840Y38300D01*
X159297Y40840D02*
X159320Y61180D01*
X182160Y38300D02*
X184700Y40840D01*
X161840Y63700D02*
X182160D01*
X159320Y61180D02*
X161840Y63700D01*
X182160D02*
X184700Y61160D01*
X207560Y63700D02*
X210100Y61160D01*
X184720Y61180D02*
X187240Y63700D01*
X207560D01*
Y38300D02*
X210100Y40840D01*
X184700D02*
X187240Y38300D01*
X207560D01*
X444198Y193641D02*
X444198Y213961D01*
X446738Y216501D01*
X444198Y193641D02*
X446738Y191101D01*
X469598Y213961D02*
X469598Y193641D01*
X467078Y216481D02*
X469598Y213961D01*
X467058Y191101D02*
X469598Y193641D01*
X446738Y191101D02*
X467058D01*
X444198Y264761D02*
X444198Y244441D01*
X444198Y264761D02*
X446738Y267301D01*
Y267304D02*
X467078Y267281D01*
X444198Y244441D02*
X446738Y241901D01*
X469598Y244441D02*
X469598Y264761D01*
X467078Y267281D02*
X469598Y264761D01*
X467058Y241901D02*
X469598Y244441D01*
X467058Y216501D02*
X469598Y219041D01*
X467078Y241881D02*
X469598Y239361D01*
Y219041D02*
Y239361D01*
X444198Y219041D02*
X446738Y216501D01*
X444198Y239361D02*
X446738Y241901D01*
X444198Y219041D02*
Y239361D01*
X634703Y381500D02*
X637300Y381500D01*
X634703Y358500D02*
X637300Y358500D01*
X807500Y469067D02*
Y478500D01*
X794500Y459542D02*
Y468458D01*
X794684Y478500D02*
X807500D01*
X794684Y449500D02*
X807500D01*
Y458933D01*
X416300Y295240D02*
X416300Y315560D01*
X418840Y318100D01*
X416300Y295240D02*
X418840Y292700D01*
X441700Y315560D02*
X441700Y295240D01*
X439180Y318080D02*
X441700Y315560D01*
X439160Y292700D02*
X441700Y295240D01*
X439160Y318100D02*
X441700Y320640D01*
X439180Y343480D02*
X441700Y340960D01*
X441700Y320640D01*
X416300D02*
X418840Y318100D01*
Y343503D02*
X439180Y343480D01*
X416300Y340960D02*
X418840Y343500D01*
X416300Y320640D02*
X416300Y340960D01*
X416300Y264760D02*
X416300Y244440D01*
X416300Y264760D02*
X418840Y267300D01*
X416300Y244440D02*
X418840Y241900D01*
X441700Y244440D02*
X441700Y264760D01*
X439180Y267280D02*
X441700Y264760D01*
X439160Y241900D02*
X441700Y244440D01*
X439160Y267300D02*
X441700Y269840D01*
X439180Y292680D02*
X441700Y290160D01*
Y269840D02*
Y290160D01*
X416300Y269840D02*
X418840Y267300D01*
X416300Y290160D02*
X418840Y292700D01*
X416300Y269840D02*
Y290160D01*
X416300Y193640D02*
X416300Y213960D01*
X418840Y216500D01*
X416300Y193640D02*
X418840Y191100D01*
X441700Y213960D02*
X441700Y193640D01*
X439180Y216480D02*
X441700Y213960D01*
X439160Y191100D02*
X441700Y193640D01*
X439160Y216500D02*
X441700Y219040D01*
X439180Y241880D02*
X441700Y239360D01*
X441700Y219040D02*
X441700Y239360D01*
X416300Y219040D02*
X418840Y216500D01*
X416300Y239360D02*
X418840Y241900D01*
X416300Y239360D02*
X416300Y219040D01*
X416300Y163160D02*
X416300Y142840D01*
X416300Y163160D02*
X418840Y165700D01*
X416300Y142840D02*
X418840Y140300D01*
X441700Y142840D02*
X441700Y163160D01*
X439180Y165680D02*
X441700Y163160D01*
X439160Y140300D02*
X441700Y142840D01*
X439160Y165700D02*
X441700Y168240D01*
X439180Y191080D02*
X441700Y188560D01*
X441700Y168240D01*
X416300D02*
X418840Y165700D01*
X416300Y188560D02*
X418840Y191100D01*
X416300Y168240D02*
X416300Y188560D01*
X416300Y92040D02*
X416300Y112360D01*
X418840Y114900D01*
X416300Y92040D02*
X418840Y89500D01*
X441700Y112360D02*
X441700Y92040D01*
X439180Y114880D02*
X441700Y112360D01*
X439160Y89500D02*
X441700Y92040D01*
X439160Y114900D02*
X441700Y117440D01*
X439180Y140280D02*
X441700Y137760D01*
X441700Y117440D02*
X441700Y137760D01*
X416300Y117440D02*
X418840Y114900D01*
X416300Y137760D02*
X418840Y140300D01*
X416300Y137760D02*
X416300Y117440D01*
Y41240D02*
Y61560D01*
X418840Y64100D01*
Y38700D02*
X439160D01*
X416300Y41240D02*
X418840Y38700D01*
X441700Y41240D02*
Y61560D01*
X439180Y64080D02*
X441700Y61560D01*
X439160Y38700D02*
X441700Y41240D01*
X439160Y64100D02*
X441700Y66640D01*
X439180Y89480D02*
X441700Y86960D01*
Y66640D02*
Y86960D01*
X416300Y66640D02*
X418840Y64100D01*
X416300Y86960D02*
X418840Y89500D01*
X416300Y66640D02*
Y86960D01*
X449751Y460998D02*
X462251D01*
X449751Y459699D02*
Y460998D01*
X462251Y459699D02*
Y460998D01*
X449751Y465000D02*
X462251D01*
X449751D02*
Y466299D01*
X462251Y465000D02*
Y466299D01*
X276751Y437998D02*
X289251D01*
X276751Y436699D02*
Y437998D01*
X289251Y436699D02*
Y437998D01*
X276751Y442000D02*
X289251D01*
X276751D02*
Y443299D01*
X289251Y442000D02*
Y443299D01*
X319000Y544500D02*
X325300D01*
X319000Y569500D02*
X325300D01*
X308700Y544500D02*
X315000D01*
X308700Y569500D02*
X315000D01*
Y544500D02*
Y569500D01*
X319000Y544500D02*
Y569500D01*
X272700Y631000D02*
X287300D01*
X272700Y615000D02*
X287300D01*
X666500Y449500D02*
Y458933D01*
X653684Y449500D02*
X666500D01*
X653684Y478500D02*
X666500D01*
X653500Y459542D02*
Y468458D01*
X666500Y469067D02*
Y478500D01*
X483500Y398000D02*
Y414000D01*
X511750D02*
X512500Y414000D01*
Y398000D02*
Y414000D01*
X492870D02*
X503130D01*
X483500Y414000D02*
X484250D01*
X483500Y398000D02*
X484130Y398000D01*
X511870Y398000D02*
X512500Y398000D01*
X502370D02*
X503130Y398000D01*
X492870Y398000D02*
X493630D01*
X613171Y217170D02*
X617830Y221829D01*
X548171Y221829D02*
X552830Y217170D01*
X548171Y282170D02*
X552830Y286829D01*
X613171Y286829D02*
X617830Y282170D01*
X351500Y458340D02*
Y466660D01*
X386500Y441500D02*
Y455160D01*
X351500Y505750D02*
X351500Y506500D01*
X386500D01*
X351500Y441500D02*
Y443660D01*
Y441500D02*
X386500D01*
X351500Y489660D02*
X351500Y481340D01*
X386500Y492840D02*
Y506500D01*
X351500Y506500D02*
X351500Y504340D01*
X782000Y593000D02*
X842000D01*
X762000D02*
Y643000D01*
X834500Y695500D02*
Y765500D01*
X829500Y695500D02*
Y765500D01*
X822000Y695500D02*
Y765500D01*
X838250Y695500D02*
Y765500D01*
X785750D02*
X785750Y695500D01*
X762000Y643000D02*
X862000D01*
X842000D02*
Y695500D01*
X782000D02*
X842000D01*
X782000Y643000D02*
Y695500D01*
X842000D02*
Y765500D01*
X782000Y765500D02*
X842000Y765500D01*
X782000Y695500D02*
Y765500D01*
X812000Y695500D02*
Y765500D01*
X802000Y695500D02*
Y765500D01*
X794500Y695500D02*
X794500Y765500D01*
X789500Y695500D02*
Y765500D01*
X862000Y593000D02*
Y643000D01*
X640000Y593000D02*
X700000D01*
X620000Y643000D02*
X620000Y593000D01*
X692500Y695500D02*
Y765500D01*
X687500Y695500D02*
Y765500D01*
X680000Y695500D02*
Y765500D01*
X696250Y695500D02*
Y765500D01*
X643750Y695500D02*
Y765500D01*
X620000Y643000D02*
X720000D01*
X700000D02*
Y695500D01*
X640000D02*
X700000D01*
X640000Y643000D02*
Y695500D01*
X700000D02*
Y765500D01*
X640000D02*
X700000D01*
X640000Y695500D02*
Y765500D01*
X670000Y695500D02*
Y765500D01*
X660000Y695500D02*
Y765500D01*
X652500Y695500D02*
Y765500D01*
X647500Y695500D02*
Y765500D01*
X720000Y593000D02*
X720000Y643000D01*
X528998Y565998D02*
X530300D01*
X559700D02*
X561002D01*
X529002Y593249D02*
X561002D01*
X528998Y565998D02*
Y593249D01*
X561002Y565998D02*
Y593249D01*
X353850Y629950D02*
X504350D01*
X353850Y539450D02*
X504350Y539450D01*
X504350Y629950D02*
X504350Y539450D01*
X353850Y539450D02*
Y629950D01*
X498466Y229656D02*
Y231069D01*
X499879Y232483D01*
X501293Y232483D01*
X502000Y231776D01*
Y230363D01*
X501293Y229656D01*
X502000Y230363D01*
X503414D01*
X504121Y229656D01*
Y228242D01*
X502707Y226828D01*
X501293D01*
X506241Y230363D02*
X505534Y231069D01*
X506241Y231776D01*
X506948Y231069D01*
X506241Y230363D01*
Y237431D02*
X506241Y238845D01*
X507655Y240259D01*
X509069D01*
X509776Y239552D01*
Y238138D01*
X509069Y237431D01*
X509776Y238138D01*
X511189D01*
X511896Y237431D01*
Y236018D01*
X510482Y234604D01*
X509069D01*
X514017Y246621D02*
X516844Y243793D01*
X519672D01*
X519672Y246621D01*
X516844Y249448D01*
X197502Y559500D02*
X196502Y560500D01*
Y562499D01*
X197502Y563499D01*
X198501D01*
X199501Y562499D01*
Y561499D01*
Y562499D01*
X200501Y563499D01*
X201500D01*
X202500Y562499D01*
Y560500D01*
X201500Y559500D01*
X197502Y565498D02*
X196502Y566498D01*
Y568497D01*
X197502Y569497D01*
X201500D01*
X202500Y568497D01*
Y566498D01*
X201500Y565498D01*
X197502D01*
X196502Y571496D02*
X200501D01*
X202500Y573495D01*
X200501Y575495D01*
X196502D01*
X196502Y462499D02*
Y458500D01*
X199501D01*
X198501Y460499D01*
Y461499D01*
X199501Y462499D01*
X201500D01*
X202500Y461499D01*
Y459500D01*
X201500Y458500D01*
X196502Y464498D02*
X200501D01*
X202500Y466497D01*
X200501Y468497D01*
X196502D01*
X195502Y347499D02*
X194503Y346499D01*
Y344500D01*
X195502Y343500D01*
X196502D01*
X197502Y344500D01*
Y346499D01*
X198501Y347499D01*
X199501D01*
X200501Y346499D01*
Y344500D01*
X199501Y343500D01*
X195502Y350498D02*
X196502D01*
Y349498D01*
Y351497D01*
Y350498D01*
X199501D01*
X200501Y351497D01*
X196502Y354496D02*
X200501D01*
X198501D01*
X197502Y355496D01*
X196502Y356496D01*
Y357495D01*
X201500Y360494D02*
Y364493D01*
X202500Y366493D02*
X196502D01*
Y369492D01*
X197502Y370491D01*
X199501D01*
X200501Y369492D01*
Y366493D01*
X196502Y372491D02*
X200501D01*
X198501D01*
X197502Y373490D01*
X196502Y374490D01*
Y375490D01*
X194503Y382487D02*
X200501D01*
Y379488D01*
X199501Y378489D01*
X197502D01*
X196502Y379488D01*
Y382487D01*
X201500Y384487D02*
Y388485D01*
X200501Y390485D02*
Y392484D01*
Y391484D01*
X194503D01*
X195502Y390485D01*
X733502Y605499D02*
X732502Y604499D01*
Y602500D01*
X733502Y601500D01*
X737500D01*
X738500Y602500D01*
Y604499D01*
X737500Y605499D01*
X738500Y608498D02*
Y610497D01*
X737500Y611497D01*
X735501D01*
X734501Y610497D01*
Y608498D01*
X735501Y607498D01*
X737500D01*
X738500Y608498D01*
Y613496D02*
X734501D01*
Y616495D01*
X735501Y617495D01*
X738500D01*
X733502Y620494D02*
X734501D01*
Y619494D01*
Y621493D01*
Y620494D01*
X737500D01*
X738500Y621493D01*
X734501Y624492D02*
X738500D01*
X736501D01*
X735501Y625492D01*
X734501Y626492D01*
Y627491D01*
X738500Y631490D02*
Y633490D01*
X737500Y634489D01*
X735501D01*
X734501Y633490D01*
Y631490D01*
X735501Y630491D01*
X737500D01*
X738500Y631490D01*
Y636489D02*
Y638488D01*
Y637488D01*
X732502D01*
Y636489D01*
X735501Y647485D02*
Y651484D01*
X733502Y649484D02*
X737500D01*
X733502Y653483D02*
X732502Y654483D01*
Y656482D01*
X733502Y657482D01*
X734501D01*
X735501Y656482D01*
X736501Y657482D01*
X737500D01*
X738500Y656482D01*
Y654483D01*
X737500Y653483D01*
X736501D01*
X735501Y654483D01*
X734501Y653483D01*
X733502D01*
X735501Y654483D02*
Y656482D01*
X732502Y659481D02*
X736501D01*
X738500Y661480D01*
X736501Y663480D01*
X732502D01*
X873502Y605499D02*
X872502Y604499D01*
Y602500D01*
X873502Y601500D01*
X877500D01*
X878500Y602500D01*
Y604499D01*
X877500Y605499D01*
X878500Y608498D02*
Y610497D01*
X877500Y611497D01*
X875501D01*
X874501Y610497D01*
Y608498D01*
X875501Y607498D01*
X877500D01*
X878500Y608498D01*
Y613496D02*
X874501D01*
Y616495D01*
X875501Y617495D01*
X878500D01*
X873502Y620494D02*
X874501D01*
Y619494D01*
Y621493D01*
Y620494D01*
X877500D01*
X878500Y621493D01*
X874501Y624492D02*
X878500D01*
X876501D01*
X875501Y625492D01*
X874501Y626492D01*
Y627491D01*
X878500Y631490D02*
Y633490D01*
X877500Y634489D01*
X875501D01*
X874501Y633490D01*
Y631490D01*
X875501Y630490D01*
X877500D01*
X878500Y631490D01*
Y636489D02*
Y638488D01*
Y637488D01*
X872502D01*
Y636489D01*
X875501Y647485D02*
Y651484D01*
X873502Y649484D02*
X877500D01*
X873502Y653483D02*
X872502Y654483D01*
Y656482D01*
X873502Y657482D01*
X874501D01*
X875501Y656482D01*
Y655482D01*
Y656482D01*
X876501Y657482D01*
X877500D01*
X878500Y656482D01*
Y654483D01*
X877500Y653483D01*
X873502Y659481D02*
X872502Y660481D01*
Y662480D01*
X873502Y663480D01*
X877500D01*
X878500Y662480D01*
Y660481D01*
X877500Y659481D01*
X873502D01*
X872502Y665479D02*
X876501D01*
X878500Y667478D01*
X876501Y669478D01*
X872502D01*
X292502Y129029D02*
X298500D01*
Y132028D01*
X297501Y133028D01*
X293502D01*
X292502Y132028D01*
Y129029D01*
X298500Y138026D02*
Y136027D01*
X297501Y135027D01*
X295501D01*
X294502Y136027D01*
Y138026D01*
X295501Y139026D01*
X296501D01*
Y135027D01*
X293502Y142025D02*
X294502D01*
Y141025D01*
Y143025D01*
Y142025D01*
X297501D01*
X298500Y143025D01*
X299500Y146024D02*
Y150022D01*
X292502Y155021D02*
Y153021D01*
X293502Y152022D01*
X297501D01*
X298500Y153021D01*
Y155021D01*
X297501Y156020D01*
X293502D01*
X292502Y155021D01*
X293502Y159019D02*
X294502D01*
Y158020D01*
Y160019D01*
Y159019D01*
X297501D01*
X298500Y160019D01*
X294502Y163018D02*
X298500D01*
X296501D01*
X295501Y164018D01*
X294502Y165017D01*
Y166017D01*
X292502Y246106D02*
X298500D01*
Y249105D01*
X297501Y250105D01*
X293502D01*
X292502Y249105D01*
Y246106D01*
X298500Y255103D02*
Y253104D01*
X297501Y252104D01*
X295501D01*
X294502Y253104D01*
Y255103D01*
X295501Y256103D01*
X296501D01*
Y252104D01*
X293502Y259102D02*
X294502D01*
Y258102D01*
Y260102D01*
Y259102D01*
X297501D01*
X298500Y260102D01*
X299500Y263101D02*
Y267099D01*
X298500Y269099D02*
X292502D01*
Y272098D01*
X293502Y273097D01*
X295501D01*
X296501Y272098D01*
Y269099D01*
X294502Y276096D02*
Y278096D01*
X295501Y279096D01*
X298500D01*
Y276096D01*
X297501Y275097D01*
X296501Y276096D01*
Y279096D01*
X292502Y285094D02*
X298500D01*
Y282095D01*
X297501Y281095D01*
X295501D01*
X294502Y282095D01*
Y285094D01*
X709502Y240499D02*
Y238500D01*
X710502Y237500D01*
X714501D01*
X715500Y238500D01*
Y240499D01*
X714501Y241499D01*
X710502D01*
X709502Y240499D01*
X715500Y243498D02*
X711502D01*
Y246497D01*
X712501Y247497D01*
X715500D01*
X716500Y249496D02*
Y253495D01*
X709502Y255494D02*
X715500D01*
Y258493D01*
X714501Y259493D01*
X710502D01*
X709502Y258493D01*
Y255494D01*
X710502Y265491D02*
X709502Y264491D01*
Y262492D01*
X710502Y261492D01*
X714501D01*
X715500Y262492D01*
Y264491D01*
X714501Y265491D01*
X715500Y267490D02*
X711502Y271489D01*
X709502Y273488D02*
X715500D01*
Y276487D01*
X714501Y277487D01*
X710502D01*
X709502Y276487D01*
Y273488D01*
X710502Y283485D02*
X709502Y282485D01*
Y280486D01*
X710502Y279486D01*
X714501D01*
X715500Y280486D01*
Y282485D01*
X714501Y283485D01*
X533222Y75240D02*
X531809Y73826D01*
Y72412D01*
X534636Y69585D01*
X536050D01*
X537464Y70998D01*
Y72412D01*
X534636Y75240D01*
X533222Y75240D01*
X539584Y73119D02*
X536757Y75947D01*
X538877Y78067D01*
X540291D01*
X542412Y75947D01*
X544532Y76653D02*
X547360Y79481D01*
X544532Y85136D02*
Y86550D01*
X545946Y87963D01*
X547360Y87963D01*
X548067Y87257D01*
Y85843D01*
X547360Y85136D01*
X548067Y85843D01*
X549481D01*
X550187Y85136D01*
Y83722D01*
X548774Y82309D01*
X547360D01*
X548774Y89377D02*
Y90791D01*
X550187Y92205D01*
X551601Y92205D01*
X554429Y89377D01*
Y87963D01*
X553015Y86550D01*
X551601D01*
X548774Y89377D01*
X552308Y94325D02*
X555136Y91498D01*
X557963D01*
X557963Y94325D01*
X555136Y97153D01*
X189588Y77586D02*
Y81584D01*
Y79585D01*
X195586D01*
X189588Y83584D02*
X195586Y87582D01*
X189588D02*
X195586Y83584D01*
X222154Y78754D02*
X216156D01*
Y81753D01*
X217156Y82752D01*
X219155D01*
X220155Y81753D01*
Y78754D01*
Y80753D02*
X222154Y82752D01*
X216156Y84752D02*
X222154Y88750D01*
X216156D02*
X222154Y84752D01*
X241502Y70500D02*
Y72499D01*
Y71499D01*
X247500D01*
Y70500D01*
Y72499D01*
Y79497D02*
Y75498D01*
X243502Y79497D01*
X242502D01*
X241502Y78497D01*
Y76498D01*
X242502Y75498D01*
Y85495D02*
X241502Y84495D01*
Y82496D01*
X242502Y81496D01*
X246501D01*
X247500Y82496D01*
Y84495D01*
X246501Y85495D01*
X248500Y87494D02*
Y91493D01*
X242502Y97491D02*
X241502Y96491D01*
Y94492D01*
X242502Y93492D01*
X243502D01*
X244501Y94492D01*
Y96491D01*
X245501Y97491D01*
X246501D01*
X247500Y96491D01*
Y94492D01*
X246501Y93492D01*
X241502Y99490D02*
X247500D01*
Y102489D01*
X246501Y103489D01*
X242502D01*
X241502Y102489D01*
Y99490D01*
X247500Y105488D02*
X243502D01*
X241502Y107488D01*
X243502Y109487D01*
X247500D01*
X244501D01*
Y105488D01*
X266502Y71500D02*
Y73499D01*
Y72499D01*
X272500D01*
Y71500D01*
Y73499D01*
Y80497D02*
Y76498D01*
X268502Y80497D01*
X267502D01*
X266502Y79497D01*
Y77498D01*
X267502Y76498D01*
Y86495D02*
X266502Y85495D01*
Y83496D01*
X267502Y82496D01*
X271501D01*
X272500Y83496D01*
Y85495D01*
X271501Y86495D01*
X273500Y88494D02*
Y92493D01*
X267502Y98491D02*
X266502Y97491D01*
Y95492D01*
X267502Y94492D01*
X268502D01*
X269501Y95492D01*
Y97491D01*
X270501Y98491D01*
X271501D01*
X272500Y97491D01*
Y95492D01*
X271501Y94492D01*
X267502Y104489D02*
X266502Y103489D01*
Y101490D01*
X267502Y100490D01*
X271501D01*
X272500Y101490D01*
Y103489D01*
X271501Y104489D01*
X266502Y106488D02*
X272500D01*
Y110487D01*
X291295Y71698D02*
X290296Y70699D01*
Y68699D01*
X291295Y67700D01*
X292295D01*
X293295Y68699D01*
Y70699D01*
X294294Y71698D01*
X295294D01*
X296294Y70699D01*
Y68699D01*
X295294Y67700D01*
X291295Y74697D02*
X292295D01*
Y73698D01*
Y75697D01*
Y74697D01*
X295294D01*
X296294Y75697D01*
X292295Y78696D02*
X296294D01*
X294294D01*
X293295Y79696D01*
X292295Y80695D01*
Y81695D01*
X297293Y84694D02*
Y88693D01*
X298293Y90692D02*
X292295D01*
Y93691D01*
X293295Y94691D01*
X295294D01*
X296294Y93691D01*
Y90692D01*
X292295Y96690D02*
X296294D01*
X294294D01*
X293295Y97690D01*
X292295Y98690D01*
Y99689D01*
X290296Y106687D02*
X296294D01*
Y103688D01*
X295294Y102688D01*
X293295D01*
X292295Y103688D01*
Y106687D01*
X297293Y108687D02*
Y112685D01*
X296294Y114684D02*
Y116684D01*
Y115684D01*
X290296D01*
X291295Y114684D01*
X160502Y73500D02*
X166500D01*
Y76499D01*
X165500Y77498D01*
X164501D01*
X163501Y76499D01*
Y73500D01*
Y76499D01*
X162501Y77498D01*
X161502D01*
X160502Y76499D01*
Y73500D01*
Y82497D02*
Y80498D01*
X161502Y79498D01*
X165500D01*
X166500Y80498D01*
Y82497D01*
X165500Y83497D01*
X161502D01*
X160502Y82497D01*
Y88495D02*
Y86496D01*
X161502Y85496D01*
X165500D01*
X166500Y86496D01*
Y88495D01*
X165500Y89494D01*
X161502D01*
X160502Y88495D01*
Y91494D02*
Y95493D01*
Y93493D01*
X166500D01*
X161502Y97492D02*
X160502Y98492D01*
Y100491D01*
X161502Y101491D01*
X165500D01*
X166500Y100491D01*
Y98492D01*
X165500Y97492D01*
X161502D01*
X358500Y259498D02*
X360499D01*
X359500D01*
Y253499D01*
X358500D01*
X360499D01*
X367497D02*
X363498D01*
X367497Y257498D01*
Y258498D01*
X366497Y259498D01*
X364498D01*
X363498Y258498D01*
X373495D02*
X372495Y259498D01*
X370496D01*
X369496Y258498D01*
Y254499D01*
X370496Y253499D01*
X372495D01*
X373495Y254499D01*
X375494Y252500D02*
X379493D01*
X381493Y258498D02*
X382492Y259498D01*
X384492D01*
X385491Y258498D01*
Y254499D01*
X384492Y253499D01*
X382492D01*
X381493Y254499D01*
Y258498D01*
X358500Y233498D02*
X360499D01*
X359500D01*
Y227499D01*
X358500D01*
X360499D01*
X367497D02*
X363498D01*
X367497Y231498D01*
Y232498D01*
X366497Y233498D01*
X364498D01*
X363498Y232498D01*
X373495D02*
X372495Y233498D01*
X370496D01*
X369496Y232498D01*
Y228499D01*
X370496Y227499D01*
X372495D01*
X373495Y228499D01*
X375494Y226500D02*
X379493D01*
X381493Y227499D02*
X383492D01*
X382492D01*
Y233498D01*
X381493Y232498D01*
X356500Y208498D02*
X358499D01*
X357500D01*
Y202499D01*
X356500D01*
X358499D01*
X365497D02*
X361498D01*
X365497Y206498D01*
Y207498D01*
X364497Y208498D01*
X362498D01*
X361498Y207498D01*
X371495D02*
X370495Y208498D01*
X368496D01*
X367496Y207498D01*
Y203499D01*
X368496Y202499D01*
X370495D01*
X371495Y203499D01*
X373494Y201500D02*
X377493D01*
X383491Y202499D02*
X379492D01*
X383491Y206498D01*
Y207498D01*
X382491Y208498D01*
X380492D01*
X379492Y207498D01*
X384500Y333498D02*
Y327500D01*
X387499D01*
X388499Y328499D01*
Y329499D01*
X387499Y330499D01*
X384500D01*
X387499D01*
X388499Y331498D01*
Y332498D01*
X387499Y333498D01*
X384500D01*
X393497D02*
X391498D01*
X390498Y332498D01*
Y328499D01*
X391498Y327500D01*
X393497D01*
X394497Y328499D01*
Y332498D01*
X393497Y333498D01*
X399495D02*
X397496D01*
X396496Y332498D01*
Y328499D01*
X397496Y327500D01*
X399495D01*
X400495Y328499D01*
Y332498D01*
X399495Y333498D01*
X402494D02*
X406493D01*
X404493D01*
Y327500D01*
X408492Y332498D02*
X409492Y333498D01*
X411491D01*
X412491Y332498D01*
Y328499D01*
X411491Y327500D01*
X409492D01*
X408492Y328499D01*
Y332498D01*
X355501Y353500D02*
X349503D01*
Y356499D01*
X350502Y357499D01*
X352502D01*
X353501Y356499D01*
Y353500D01*
Y355499D02*
X355501Y357499D01*
Y362497D02*
Y360498D01*
X354501Y359498D01*
X352502D01*
X351502Y360498D01*
Y362497D01*
X352502Y363497D01*
X353501D01*
Y359498D01*
X357500Y367495D02*
Y368495D01*
X356500Y369495D01*
X351502D01*
Y366496D01*
X352502Y365496D01*
X354501D01*
X355501Y366496D01*
Y369495D01*
X356500Y371494D02*
Y375493D01*
X350502Y377492D02*
X349503Y378492D01*
Y380491D01*
X350502Y381491D01*
X351502D01*
X352502Y380491D01*
Y379492D01*
Y380491D01*
X353501Y381491D01*
X354501D01*
X355501Y380491D01*
Y378492D01*
X354501Y377492D01*
X350502Y383490D02*
X349503Y384490D01*
Y386489D01*
X350502Y387489D01*
X354501D01*
X355501Y386489D01*
Y384490D01*
X354501Y383490D01*
X350502D01*
X349503Y389488D02*
X353501D01*
X355501Y391488D01*
X353501Y393487D01*
X349503D01*
X811499Y195498D02*
X810499Y196498D01*
X808500D01*
X807500Y195498D01*
Y194498D01*
X808500Y193499D01*
X810499D01*
X811499Y192499D01*
Y191499D01*
X810499Y190500D01*
X808500D01*
X807500Y191499D01*
X813498Y196498D02*
Y190500D01*
X815497Y192499D01*
X817497Y190500D01*
Y196498D01*
X822495D02*
X820496D01*
X819496Y195498D01*
Y191499D01*
X820496Y190500D01*
X822495D01*
X823495Y191499D01*
Y195498D01*
X822495Y196498D01*
X811499Y220498D02*
X810499Y221498D01*
X808500D01*
X807500Y220498D01*
Y219498D01*
X808500Y218499D01*
X810499D01*
X811499Y217499D01*
Y216499D01*
X810499Y215500D01*
X808500D01*
X807500Y216499D01*
X813498Y221498D02*
Y215500D01*
X815497Y217499D01*
X817497Y215500D01*
Y221498D01*
X819496D02*
Y215500D01*
X822495D01*
X823495Y216499D01*
Y220498D01*
X822495Y221498D01*
X819496D01*
X825494D02*
X827494D01*
X826494D01*
Y215500D01*
X825494D01*
X827494D01*
X833492Y221498D02*
X831492D01*
X830492Y220498D01*
Y216499D01*
X831492Y215500D01*
X833492D01*
X834491Y216499D01*
Y220498D01*
X833492Y221498D01*
X812499Y244498D02*
X811499Y245498D01*
X809500D01*
X808500Y244498D01*
Y240499D01*
X809500Y239500D01*
X811499D01*
X812499Y240499D01*
Y242499D01*
X810499D01*
X814498Y239500D02*
Y245498D01*
X818497Y239500D01*
Y245498D01*
X820496D02*
Y239500D01*
X823495D01*
X824495Y240499D01*
Y244498D01*
X823495Y245498D01*
X820496D01*
X811499Y269498D02*
X810499Y270498D01*
X808500D01*
X807500Y269498D01*
Y268498D01*
X808500Y267499D01*
X810499D01*
X811499Y266499D01*
Y265499D01*
X810499Y264500D01*
X808500D01*
X807500Y265499D01*
X813498Y270498D02*
Y264500D01*
X815497Y266499D01*
X817497Y264500D01*
Y270498D01*
X823495Y269498D02*
X822495Y270498D01*
X820496D01*
X819496Y269498D01*
Y265499D01*
X820496Y264500D01*
X822495D01*
X823495Y265499D01*
X825494Y270498D02*
Y264500D01*
X829493D01*
X831492Y270498D02*
Y264500D01*
Y266499D01*
X835491Y270498D01*
X832492Y267499D01*
X835491Y264500D01*
X809500Y296498D02*
X810500Y297498D01*
X812499D01*
X813499Y296498D01*
Y295498D01*
X812499Y294499D01*
X811499D01*
X812499D01*
X813499Y293499D01*
Y292499D01*
X812499Y291500D01*
X810500D01*
X809500Y292499D01*
X815498Y297498D02*
Y293499D01*
X817497Y291500D01*
X819497Y293499D01*
Y297498D01*
X821496Y296498D02*
X822496Y297498D01*
X824495D01*
X825495Y296498D01*
Y295498D01*
X824495Y294499D01*
X823495D01*
X824495D01*
X825495Y293499D01*
Y292499D01*
X824495Y291500D01*
X822496D01*
X821496Y292499D01*
X367499Y55497D02*
X366499Y56497D01*
X364500D01*
X363500Y55497D01*
Y54498D01*
X364500Y53498D01*
X366499D01*
X367499Y52498D01*
Y51499D01*
X366499Y50499D01*
X364500D01*
X363500Y51499D01*
X370498Y55497D02*
Y54498D01*
X369498D01*
X371497D01*
X370498D01*
Y51499D01*
X371497Y50499D01*
X374496Y54498D02*
Y50499D01*
Y52498D01*
X375496Y53498D01*
X376496Y54498D01*
X377495D01*
X380494Y49499D02*
X384493D01*
X386493Y48500D02*
Y54498D01*
X389492D01*
X390491Y53498D01*
Y51499D01*
X389492Y50499D01*
X386493D01*
X392491Y54498D02*
Y50499D01*
Y52498D01*
X393490Y53498D01*
X394490Y54498D01*
X395490D01*
X402487Y56497D02*
Y50499D01*
X399488D01*
X398489Y51499D01*
Y53498D01*
X399488Y54498D01*
X402487D01*
X404487Y49499D02*
X408485D01*
X410485Y50499D02*
X412484D01*
X411484D01*
Y56497D01*
X410485Y55497D01*
X393499Y77498D02*
X392499Y78498D01*
X390500D01*
X389500Y77498D01*
Y73499D01*
X390500Y72500D01*
X392499D01*
X393499Y73499D01*
Y75499D01*
X391499D01*
X395498Y72500D02*
Y78498D01*
X399497Y72500D01*
Y78498D01*
X401496D02*
Y72500D01*
X404495D01*
X405495Y73499D01*
Y77498D01*
X404495Y78498D01*
X401496D01*
X395499Y102498D02*
X391500D01*
Y99499D01*
X393499Y100499D01*
X394499D01*
X395499Y99499D01*
Y97499D01*
X394499Y96500D01*
X392500D01*
X391500Y97499D01*
X397498Y102498D02*
Y98499D01*
X399497Y96500D01*
X401497Y98499D01*
Y102498D01*
X380499Y130498D02*
X378500D01*
X377500Y129498D01*
Y125499D01*
X378500Y124499D01*
X380499D01*
X381499Y125499D01*
Y129498D01*
X380499Y130498D01*
X383498Y124499D02*
Y128498D01*
X386497D01*
X387497Y127498D01*
Y124499D01*
X389496Y123500D02*
X393495D01*
X395494Y129498D02*
X396494Y130498D01*
X398493D01*
X399493Y129498D01*
Y128498D01*
X398493Y127498D01*
X397494D01*
X398493D01*
X399493Y126499D01*
Y125499D01*
X398493Y124499D01*
X396494D01*
X395494Y125499D01*
X401492Y129498D02*
X402492Y130498D01*
X404491D01*
X405491Y129498D01*
Y125499D01*
X404491Y124499D01*
X402492D01*
X401492Y125499D01*
Y129498D01*
X407490Y130498D02*
Y126499D01*
X409490Y124499D01*
X411489Y126499D01*
Y130498D01*
X373500Y157498D02*
X375499D01*
X374500D01*
Y151499D01*
X373500D01*
X375499D01*
X382497D02*
X378498D01*
X382497Y155498D01*
Y156498D01*
X381497Y157498D01*
X379498D01*
X378498Y156498D01*
X388495D02*
X387495Y157498D01*
X385496D01*
X384496Y156498D01*
Y152499D01*
X385496Y151499D01*
X387495D01*
X388495Y152499D01*
X390494Y150500D02*
X394493D01*
X400491Y156498D02*
X399492Y157498D01*
X397492D01*
X396493Y156498D01*
Y155498D01*
X397492Y154498D01*
X399492D01*
X400491Y153499D01*
Y152499D01*
X399492Y151499D01*
X397492D01*
X396493Y152499D01*
X406489Y156498D02*
X405490Y157498D01*
X403490D01*
X402491Y156498D01*
Y152499D01*
X403490Y151499D01*
X405490D01*
X406489Y152499D01*
X408489Y157498D02*
Y151499D01*
X412487D01*
X373500Y182498D02*
X375499D01*
X374500D01*
Y176499D01*
X373500D01*
X375499D01*
X382497D02*
X378498D01*
X382497Y180498D01*
Y181498D01*
X381497Y182498D01*
X379498D01*
X378498Y181498D01*
X388495D02*
X387495Y182498D01*
X385496D01*
X384496Y181498D01*
Y177499D01*
X385496Y176499D01*
X387495D01*
X388495Y177499D01*
X390494Y175500D02*
X394493D01*
X400491Y181498D02*
X399492Y182498D01*
X397492D01*
X396493Y181498D01*
Y180498D01*
X397492Y179498D01*
X399492D01*
X400491Y178499D01*
Y177499D01*
X399492Y176499D01*
X397492D01*
X396493Y177499D01*
X402491Y182498D02*
Y176499D01*
X405490D01*
X406489Y177499D01*
Y181498D01*
X405490Y182498D01*
X402491D01*
X408489Y176499D02*
Y180498D01*
X410488Y182498D01*
X412487Y180498D01*
Y176499D01*
Y179498D01*
X408489D01*
X396500Y278500D02*
Y284498D01*
X399499D01*
X400499Y283498D01*
Y281499D01*
X399499Y280499D01*
X396500D01*
X398499D02*
X400499Y278500D01*
X402498Y284498D02*
X406497Y278500D01*
Y284498D02*
X402498Y278500D01*
X395500Y309498D02*
X399499D01*
X397499D01*
Y303500D01*
X401498Y309498D02*
X405497Y303500D01*
Y309498D02*
X401498Y303500D01*
X617000Y323999D02*
X616001Y324999D01*
X614001D01*
X613002Y323999D01*
Y320001D01*
X614001Y319001D01*
X616001D01*
X617000Y320001D01*
X619000Y324999D02*
X622998D01*
Y323999D01*
X619000Y320001D01*
Y319001D01*
X793003Y490999D02*
Y487000D01*
X795002Y485001D01*
X797001Y487000D01*
Y490999D01*
X799001D02*
Y485001D01*
X802000D01*
X802999Y486000D01*
Y489999D01*
X802000Y490999D01*
X799001D01*
X808997Y485001D02*
X804999D01*
X808997Y488999D01*
Y489999D01*
X807998Y490999D01*
X805998D01*
X804999Y489999D01*
X568001Y423999D02*
X572000D01*
Y422999D01*
X568001Y419000D01*
Y418001D01*
X572000D01*
X573999D02*
X575999D01*
X574999D01*
Y423999D01*
X573999Y422999D01*
X76003Y518999D02*
X80001Y513001D01*
Y518999D02*
X76003Y513001D01*
X85999Y517999D02*
X85000Y518999D01*
X83000D01*
X82001Y517999D01*
Y516999D01*
X83000Y516000D01*
X85000D01*
X85999Y515000D01*
Y514000D01*
X85000Y513001D01*
X83000D01*
X82001Y514000D01*
X90998Y513001D02*
Y518999D01*
X87999Y516000D01*
X91997D01*
X77003Y617999D02*
X81001Y612001D01*
Y617999D02*
X77003Y612001D01*
X86999Y616999D02*
X86000Y617999D01*
X84000D01*
X83001Y616999D01*
Y615999D01*
X84000Y615000D01*
X86000D01*
X86999Y614000D01*
Y613000D01*
X86000Y612001D01*
X84000D01*
X83001Y613000D01*
X88999Y616999D02*
X89998Y617999D01*
X91998D01*
X92997Y616999D01*
Y615999D01*
X91998Y615000D01*
X90998D01*
X91998D01*
X92997Y614000D01*
Y613000D01*
X91998Y612001D01*
X89998D01*
X88999Y613000D01*
X76003Y418999D02*
X80001Y413001D01*
Y418999D02*
X76003Y413001D01*
X85999Y417999D02*
X85000Y418999D01*
X83000D01*
X82001Y417999D01*
Y416999D01*
X83000Y416000D01*
X85000D01*
X85999Y415000D01*
Y414000D01*
X85000Y413001D01*
X83000D01*
X82001Y414000D01*
X91997Y413001D02*
X87999D01*
X91997Y416999D01*
Y417999D01*
X90998Y418999D01*
X88998D01*
X87999Y417999D01*
X778510Y320626D02*
X782509Y314628D01*
Y320626D02*
X778510Y314628D01*
X788507Y319626D02*
X787507Y320626D01*
X785508D01*
X784508Y319626D01*
Y318626D01*
X785508Y317627D01*
X787507D01*
X788507Y316627D01*
Y315627D01*
X787507Y314628D01*
X785508D01*
X784508Y315627D01*
X790506Y314628D02*
X792505D01*
X791506D01*
Y320626D01*
X790506Y319626D01*
X423416Y356650D02*
X427415Y350652D01*
Y356650D02*
X423416Y350652D01*
X429415D02*
Y356650D01*
X432414D01*
X433413Y355650D01*
Y353651D01*
X432414Y352651D01*
X429415D01*
X435413Y350652D02*
X437412D01*
X436412D01*
Y356650D01*
X435413Y355650D01*
X652002Y490999D02*
Y487000D01*
X654002Y485001D01*
X656001Y487000D01*
Y490999D01*
X658000D02*
Y485001D01*
X660999D01*
X661999Y486000D01*
Y489999D01*
X660999Y490999D01*
X658000D01*
X663998Y485001D02*
X665998D01*
X664998D01*
Y490999D01*
X663998Y489999D01*
X232001Y512999D02*
X231002Y513999D01*
X229002D01*
X228003Y512999D01*
Y512000D01*
X229002Y511000D01*
X231002D01*
X232001Y510000D01*
Y509000D01*
X231002Y508001D01*
X229002D01*
X228003Y509000D01*
X234001Y513999D02*
Y508001D01*
X237000D01*
X237999Y509000D01*
Y510000D01*
X237000Y511000D01*
X234001D01*
X237000D01*
X237999Y512000D01*
Y512999D01*
X237000Y513999D01*
X234001D01*
X243997Y508001D02*
X239999D01*
X243997Y512000D01*
Y512999D01*
X242998Y513999D01*
X240998D01*
X239999Y512999D01*
X226001Y649999D02*
X225001Y650999D01*
X223002D01*
X222002Y649999D01*
Y648999D01*
X223002Y648000D01*
X225001D01*
X226001Y647000D01*
Y646000D01*
X225001Y645001D01*
X223002D01*
X222002Y646000D01*
X228000Y650999D02*
Y645001D01*
X230999D01*
X231999Y646000D01*
Y647000D01*
X230999Y648000D01*
X228000D01*
X230999D01*
X231999Y648999D01*
Y649999D01*
X230999Y650999D01*
X228000D01*
X233998Y645001D02*
X235998D01*
X234998D01*
Y650999D01*
X233998Y649999D01*
X756003Y650001D02*
Y655999D01*
X759002D01*
X760001Y654999D01*
Y653000D01*
X759002Y652000D01*
X756003D01*
X758002D02*
X760001Y650001D01*
X762001Y655999D02*
Y652000D01*
X764000Y650001D01*
X765999Y652000D01*
Y655999D01*
X771997Y650001D02*
X767999D01*
X771997Y654000D01*
Y654999D01*
X770998Y655999D01*
X768998D01*
X767999Y654999D01*
X617002Y650001D02*
Y655999D01*
X620001D01*
X621001Y654999D01*
Y653000D01*
X620001Y652000D01*
X617002D01*
X619002D02*
X621001Y650001D01*
X623000Y655999D02*
Y652000D01*
X625000Y650001D01*
X626999Y652000D01*
Y655999D01*
X628998Y650001D02*
X630998D01*
X629998D01*
Y655999D01*
X628998Y654999D01*
X275002Y183001D02*
Y188999D01*
X278001D01*
X279001Y187999D01*
Y186000D01*
X278001Y185000D01*
X275002D01*
X277002D02*
X279001Y183001D01*
X281000Y187999D02*
X282000Y188999D01*
X283999D01*
X284999Y187999D01*
Y186999D01*
X283999Y186000D01*
X283000D01*
X283999D01*
X284999Y185000D01*
Y184000D01*
X283999Y183001D01*
X282000D01*
X281000Y184000D01*
X286998Y183001D02*
X288998D01*
X287998D01*
Y188999D01*
X286998Y187999D01*
X403999Y402003D02*
X398001D01*
Y405002D01*
X399001Y406001D01*
X401000D01*
X402000Y405002D01*
Y402003D01*
Y404002D02*
X403999Y406001D01*
X399001Y408001D02*
X398001Y409000D01*
Y411000D01*
X399001Y411999D01*
X400000D01*
X401000Y411000D01*
Y410000D01*
Y411000D01*
X402000Y411999D01*
X402999D01*
X403999Y411000D01*
Y409000D01*
X402999Y408001D01*
X399001Y413999D02*
X398001Y414998D01*
Y416998D01*
X399001Y417997D01*
X402999D01*
X403999Y416998D01*
Y414998D01*
X402999Y413999D01*
X399001D01*
X330003Y202001D02*
Y207999D01*
X333002D01*
X334001Y206999D01*
Y205000D01*
X333002Y204000D01*
X330003D01*
X332002D02*
X334001Y202001D01*
X339999D02*
X336001D01*
X339999Y206000D01*
Y206999D01*
X339000Y207999D01*
X337000D01*
X336001Y206999D01*
X341999Y203000D02*
X342998Y202001D01*
X344998D01*
X345997Y203000D01*
Y206999D01*
X344998Y207999D01*
X342998D01*
X341999Y206999D01*
Y206000D01*
X342998Y205000D01*
X345997D01*
X446999Y402122D02*
X441001D01*
Y405121D01*
X442001Y406120D01*
X444000D01*
X445000Y405121D01*
Y402122D01*
Y404121D02*
X446999Y406120D01*
Y412118D02*
Y408120D01*
X443000Y412118D01*
X442001D01*
X441001Y411119D01*
Y409119D01*
X442001Y408120D01*
Y414118D02*
X441001Y415118D01*
Y417117D01*
X442001Y418117D01*
X443000D01*
X444000Y417117D01*
X445000Y418117D01*
X445999D01*
X446999Y417117D01*
Y415118D01*
X445999Y414118D01*
X445000D01*
X444000Y415118D01*
X443000Y414118D01*
X442001D01*
X444000Y415118D02*
Y417117D01*
X466999Y402003D02*
X461001D01*
Y405002D01*
X462001Y406001D01*
X464000D01*
X465000Y405002D01*
Y402003D01*
Y404002D02*
X466999Y406001D01*
Y411999D02*
Y408001D01*
X463000Y411999D01*
X462001D01*
X461001Y411000D01*
Y409000D01*
X462001Y408001D01*
X461001Y413999D02*
Y417997D01*
X462001D01*
X465999Y413999D01*
X466999D01*
X292003Y343001D02*
Y348999D01*
X295002D01*
X296001Y347999D01*
Y346000D01*
X295002Y345000D01*
X292003D01*
X294002D02*
X296001Y343001D01*
X301999D02*
X298001D01*
X301999Y347000D01*
Y347999D01*
X301000Y348999D01*
X299000D01*
X298001Y347999D01*
X307997Y348999D02*
X305998Y347999D01*
X303999Y346000D01*
Y344001D01*
X304998Y343001D01*
X306998D01*
X307997Y344001D01*
Y345000D01*
X306998Y346000D01*
X303999D01*
X337003Y323001D02*
Y328999D01*
X340002D01*
X341001Y327999D01*
Y326000D01*
X340002Y325000D01*
X337003D01*
X339002D02*
X341001Y323001D01*
X346999D02*
X343001D01*
X346999Y326999D01*
Y327999D01*
X346000Y328999D01*
X344000D01*
X343001Y327999D01*
X352997Y328999D02*
X348999D01*
Y326000D01*
X350998Y326999D01*
X351998D01*
X352997Y326000D01*
Y324000D01*
X351998Y323001D01*
X349998D01*
X348999Y324000D01*
X748003Y375001D02*
Y380999D01*
X751002D01*
X752001Y379999D01*
Y378000D01*
X751002Y377000D01*
X748003D01*
X750002D02*
X752001Y375001D01*
X757999D02*
X754001D01*
X757999Y378999D01*
Y379999D01*
X757000Y380999D01*
X755000D01*
X754001Y379999D01*
X762998Y375001D02*
Y380999D01*
X759999Y378000D01*
X763997D01*
X506003Y376001D02*
Y381999D01*
X509002D01*
X510001Y380999D01*
Y379000D01*
X509002Y378000D01*
X506003D01*
X508002D02*
X510001Y376001D01*
X515999D02*
X512001D01*
X515999Y379999D01*
Y380999D01*
X515000Y381999D01*
X513000D01*
X512001Y380999D01*
X517999D02*
X518998Y381999D01*
X520998D01*
X521997Y380999D01*
Y379999D01*
X520998Y379000D01*
X519998D01*
X520998D01*
X521997Y378000D01*
Y377000D01*
X520998Y376001D01*
X518998D01*
X517999Y377000D01*
X263003Y540001D02*
Y545999D01*
X266002D01*
X267001Y544999D01*
Y543000D01*
X266002Y542000D01*
X263003D01*
X265002D02*
X267001Y540001D01*
X272999D02*
X269001D01*
X272999Y544000D01*
Y544999D01*
X272000Y545999D01*
X270000D01*
X269001Y544999D01*
X278997Y540001D02*
X274999D01*
X278997Y544000D01*
Y544999D01*
X277998Y545999D01*
X275998D01*
X274999Y544999D01*
X800002Y541001D02*
Y546999D01*
X803001D01*
X804001Y545999D01*
Y544000D01*
X803001Y543000D01*
X800002D01*
X802002D02*
X804001Y541001D01*
X809999D02*
X806000D01*
X809999Y544999D01*
Y545999D01*
X808999Y546999D01*
X807000D01*
X806000Y545999D01*
X811998Y541001D02*
X813998D01*
X812998D01*
Y546999D01*
X811998Y545999D01*
X642003Y290001D02*
Y295999D01*
X645002D01*
X646001Y294999D01*
Y293000D01*
X645002Y292000D01*
X642003D01*
X644002D02*
X646001Y290001D01*
X651999D02*
X648001D01*
X651999Y294000D01*
Y294999D01*
X651000Y295999D01*
X649000D01*
X648001Y294999D01*
X653999D02*
X654998Y295999D01*
X656998D01*
X657997Y294999D01*
Y291000D01*
X656998Y290001D01*
X654998D01*
X653999Y291000D01*
Y294999D01*
X667502Y290001D02*
Y295999D01*
X670501D01*
X671501Y294999D01*
Y293000D01*
X670501Y292000D01*
X667502D01*
X669502D02*
X671501Y290001D01*
X673501D02*
X675500D01*
X674500D01*
Y295999D01*
X673501Y294999D01*
X678499Y291000D02*
X679499Y290001D01*
X681498D01*
X682498Y291000D01*
Y294999D01*
X681498Y295999D01*
X679499D01*
X678499Y294999D01*
Y294000D01*
X679499Y293000D01*
X682498D01*
X227502Y540001D02*
Y545999D01*
X230501D01*
X231501Y544999D01*
Y543000D01*
X230501Y542000D01*
X227502D01*
X229502D02*
X231501Y540001D01*
X233500D02*
X235500D01*
X234500D01*
Y545999D01*
X233500Y544999D01*
X238499D02*
X239499Y545999D01*
X241498D01*
X242498Y544999D01*
Y544000D01*
X241498Y543000D01*
X242498Y542000D01*
Y541001D01*
X241498Y540001D01*
X239499D01*
X238499Y541001D01*
Y542000D01*
X239499Y543000D01*
X238499Y544000D01*
Y544999D01*
X239499Y543000D02*
X241498D01*
X476502Y482001D02*
Y487999D01*
X479501D01*
X480501Y486999D01*
Y485000D01*
X479501Y484000D01*
X476502D01*
X478502D02*
X480501Y482001D01*
X482500D02*
X484500D01*
X483500D01*
Y487999D01*
X482500Y486999D01*
X487499Y487999D02*
X491498D01*
Y486999D01*
X487499Y483000D01*
Y482001D01*
X656623Y540001D02*
Y545999D01*
X659622D01*
X660622Y544999D01*
Y543000D01*
X659622Y542000D01*
X656623D01*
X658623D02*
X660622Y540001D01*
X662621D02*
X664621D01*
X663621D01*
Y545999D01*
X662621Y544999D01*
X671618Y545999D02*
X669619Y544999D01*
X667620Y543000D01*
Y541000D01*
X668619Y540001D01*
X670619D01*
X671618Y541000D01*
Y542000D01*
X670619Y543000D01*
X667620D01*
X572503Y632001D02*
Y637999D01*
X575502D01*
X576501Y636999D01*
Y635000D01*
X575502Y634000D01*
X572503D01*
X574502D02*
X576501Y632001D01*
X578501D02*
X580500D01*
X579500D01*
Y637999D01*
X578501Y636999D01*
X587498Y637999D02*
X583499D01*
Y635000D01*
X585498Y635999D01*
X586498D01*
X587498Y635000D01*
Y633000D01*
X586498Y632001D01*
X584499D01*
X583499Y633000D01*
X572503Y598001D02*
Y603999D01*
X575502D01*
X576501Y602999D01*
Y601000D01*
X575502Y600000D01*
X572503D01*
X574502D02*
X576501Y598001D01*
X578501D02*
X580500D01*
X579500D01*
Y603999D01*
X578501Y602999D01*
X586498Y598001D02*
Y603999D01*
X583499Y601000D01*
X587498D01*
X363502Y528001D02*
Y533999D01*
X366502D01*
X367501Y532999D01*
Y531000D01*
X366502Y530000D01*
X363502D01*
X365502D02*
X367501Y528001D01*
X369501D02*
X371500D01*
X370500D01*
Y533999D01*
X369501Y532999D01*
X374499D02*
X375499Y533999D01*
X377498D01*
X378498Y532999D01*
Y532000D01*
X377498Y531000D01*
X376498D01*
X377498D01*
X378498Y530000D01*
Y529001D01*
X377498Y528001D01*
X375499D01*
X374499Y529001D01*
X471502Y64001D02*
Y69999D01*
X474501D01*
X475501Y68999D01*
Y67000D01*
X474501Y66000D01*
X471502D01*
X473502D02*
X475501Y64001D01*
X477500D02*
X479500D01*
X478500D01*
Y69999D01*
X477500Y68999D01*
X486498Y64001D02*
X482499D01*
X486498Y68000D01*
Y68999D01*
X485498Y69999D01*
X483499D01*
X482499Y68999D01*
X473502Y138001D02*
Y143999D01*
X476501D01*
X477501Y142999D01*
Y141000D01*
X476501Y140000D01*
X473502D01*
X475502D02*
X477501Y138001D01*
X479500D02*
X481499D01*
X480500D01*
Y143999D01*
X479500Y142999D01*
X484498Y138001D02*
X486498D01*
X485498D01*
Y143999D01*
X484498Y142999D01*
X486999Y329502D02*
X481001D01*
Y332501D01*
X482001Y333501D01*
X484000D01*
X485000Y332501D01*
Y329502D01*
Y331502D02*
X486999Y333501D01*
Y335500D02*
Y337500D01*
Y336500D01*
X481001D01*
X482001Y335500D01*
Y340499D02*
X481001Y341499D01*
Y343498D01*
X482001Y344498D01*
X485999D01*
X486999Y343498D01*
Y341499D01*
X485999Y340499D01*
X482001D01*
X533999Y333002D02*
X528001D01*
Y336001D01*
X529001Y337000D01*
X531000D01*
X532000Y336001D01*
Y333002D01*
Y335001D02*
X533999Y337000D01*
X532999Y339000D02*
X533999Y339999D01*
Y341999D01*
X532999Y342998D01*
X529001D01*
X528001Y341999D01*
Y339999D01*
X529001Y339000D01*
X530000D01*
X531000Y339999D01*
Y342998D01*
X599002Y384001D02*
Y389999D01*
X602001D01*
X603000Y388999D01*
Y387000D01*
X602001Y386000D01*
X599002D01*
X601001D02*
X603000Y384001D01*
X605000Y388999D02*
X605999Y389999D01*
X607999D01*
X608998Y388999D01*
Y387999D01*
X607999Y387000D01*
X608998Y386000D01*
Y385000D01*
X607999Y384001D01*
X605999D01*
X605000Y385000D01*
Y386000D01*
X605999Y387000D01*
X605000Y387999D01*
Y388999D01*
X605999Y387000D02*
X607999D01*
X717002Y304001D02*
Y309999D01*
X720001D01*
X721000Y308999D01*
Y307000D01*
X720001Y306000D01*
X717002D01*
X719001D02*
X721000Y304001D01*
X723000Y309999D02*
X726998D01*
Y308999D01*
X723000Y305000D01*
Y304001D01*
X420002Y528001D02*
Y533999D01*
X423001D01*
X424000Y532999D01*
Y531000D01*
X423001Y530000D01*
X420002D01*
X422001D02*
X424000Y528001D01*
X429998Y533999D02*
X427999Y532999D01*
X426000Y531000D01*
Y529001D01*
X426999Y528001D01*
X428999D01*
X429998Y529001D01*
Y530000D01*
X428999Y531000D01*
X426000D01*
X734002Y304001D02*
Y309999D01*
X737001D01*
X738000Y308999D01*
Y307000D01*
X737001Y306000D01*
X734002D01*
X736001D02*
X738000Y304001D01*
X743998Y309999D02*
X740000D01*
Y307000D01*
X741999Y307999D01*
X742999D01*
X743998Y307000D01*
Y305000D01*
X742999Y304001D01*
X740999D01*
X740000Y305000D01*
X300002Y600001D02*
Y605999D01*
X303001D01*
X304000Y604999D01*
Y603000D01*
X303001Y602000D01*
X300002D01*
X302001D02*
X304000Y600001D01*
X308999D02*
Y605999D01*
X306000Y603000D01*
X309998D01*
X752002Y304001D02*
Y309999D01*
X755001D01*
X756000Y308999D01*
Y307000D01*
X755001Y306000D01*
X752002D01*
X754001D02*
X756000Y304001D01*
X758000Y308999D02*
X758999Y309999D01*
X760999D01*
X761998Y308999D01*
Y307999D01*
X760999Y307000D01*
X759999D01*
X760999D01*
X761998Y306000D01*
Y305000D01*
X760999Y304001D01*
X758999D01*
X758000Y305000D01*
X275002Y637001D02*
Y642999D01*
X278001D01*
X279000Y641999D01*
Y640000D01*
X278001Y639000D01*
X275002D01*
X277001D02*
X279000Y637001D01*
X284998D02*
X281000D01*
X284998Y641000D01*
Y641999D01*
X283999Y642999D01*
X281999D01*
X281000Y641999D01*
X557293Y135052D02*
X553052Y139293D01*
X555173Y141414D01*
X556586Y141413D01*
X558000Y140000D01*
Y138586D01*
X555879Y136465D01*
X557293Y137879D02*
X560121Y137879D01*
X561534Y139293D02*
X562948Y140707D01*
X562241Y140000D01*
X558000Y144241D01*
Y142827D01*
X364003Y411999D02*
Y406001D01*
Y409000D01*
X368001D01*
Y411999D01*
Y406001D01*
X370001Y411999D02*
Y406001D01*
X373999D01*
X375999Y410999D02*
X376998Y411999D01*
X378998D01*
X379997Y410999D01*
Y410000D01*
X378998Y409000D01*
X377998D01*
X378998D01*
X379997Y408000D01*
Y407001D01*
X378998Y406001D01*
X376998D01*
X375999Y407001D01*
X689003Y298999D02*
Y293001D01*
Y296000D01*
X693001D01*
Y298999D01*
Y293001D01*
X695001Y298999D02*
Y293001D01*
X698999D01*
X704997D02*
X700999D01*
X704997Y296999D01*
Y297999D01*
X703998Y298999D01*
X701998D01*
X700999Y297999D01*
X509931Y106172D02*
X514173Y101931D01*
X512052Y104052D01*
X514879Y106879D01*
X512759Y109000D01*
X517000Y104759D01*
X514173Y110414D02*
X518414Y106172D01*
X521241Y109000D01*
X522655Y110414D02*
X524069Y111827D01*
X523362Y111120D01*
X519121Y115362D01*
Y113948D01*
X636000Y392999D02*
X635000Y393999D01*
X633001D01*
X632001Y392999D01*
Y389000D01*
X633001Y388001D01*
X635000D01*
X636000Y389000D01*
Y391000D01*
X634001D01*
X637999Y388001D02*
X639999D01*
X638999D01*
Y393999D01*
X637999Y392999D01*
X576002Y310999D02*
Y305001D01*
X579001D01*
X580001Y306001D01*
Y309999D01*
X579001Y310999D01*
X576002D01*
X582000D02*
Y305001D01*
X584999D01*
X585999Y306001D01*
Y309999D01*
X584999Y310999D01*
X582000D01*
X587998Y305001D02*
X589998D01*
X588998D01*
Y310999D01*
X587998Y309999D01*
X491003Y436999D02*
Y431001D01*
X494002D01*
X495001Y432000D01*
Y435999D01*
X494002Y436999D01*
X491003D01*
X497001Y431001D02*
Y435000D01*
X499000Y436999D01*
X500999Y435000D01*
Y431001D01*
Y434000D01*
X497001D01*
X502999Y435999D02*
X503998Y436999D01*
X505998D01*
X506997Y435999D01*
Y435000D01*
X505998Y434000D01*
X504998D01*
X505998D01*
X506997Y433000D01*
Y432000D01*
X505998Y431001D01*
X503998D01*
X502999Y432000D01*
X392003Y501999D02*
Y496001D01*
X395002D01*
X396001Y497001D01*
Y500999D01*
X395002Y501999D01*
X392003D01*
X398001Y496001D02*
Y500000D01*
X400000Y501999D01*
X401999Y500000D01*
Y496001D01*
Y499000D01*
X398001D01*
X407997Y496001D02*
X403999D01*
X407997Y500000D01*
Y500999D01*
X406998Y501999D01*
X404998D01*
X403999Y500999D01*
X420002Y642999D02*
Y637001D01*
X423001D01*
X424001Y638000D01*
Y641999D01*
X423001Y642999D01*
X420002D01*
X426000Y637001D02*
Y641000D01*
X428000Y642999D01*
X429999Y641000D01*
Y637001D01*
Y640000D01*
X426000D01*
X431998Y637001D02*
X433998D01*
X432998D01*
Y642999D01*
X431998Y641999D01*
X273001Y162999D02*
X272001Y163999D01*
X270002D01*
X269002Y162999D01*
Y159000D01*
X270002Y158001D01*
X272001D01*
X273001Y159000D01*
X278999Y158001D02*
X275000D01*
X278999Y161999D01*
Y162999D01*
X277999Y163999D01*
X276000D01*
X275000Y162999D01*
X280998Y158001D02*
X282998D01*
X281998D01*
Y163999D01*
X280998Y162999D01*
X422001Y406121D02*
X421001Y405122D01*
Y403122D01*
X422001Y402123D01*
X425999D01*
X426999Y403122D01*
Y405122D01*
X425999Y406121D01*
X426999Y412119D02*
Y408121D01*
X423000Y412119D01*
X422001D01*
X421001Y411120D01*
Y409120D01*
X422001Y408121D01*
Y414119D02*
X421001Y415118D01*
Y417118D01*
X422001Y418117D01*
X425999D01*
X426999Y417118D01*
Y415118D01*
X425999Y414119D01*
X422001D01*
X284501Y327999D02*
X283501Y328999D01*
X281502D01*
X280502Y327999D01*
Y324001D01*
X281502Y323001D01*
X283501D01*
X284501Y324001D01*
X286500Y323001D02*
X288500D01*
X287500D01*
Y328999D01*
X286500Y327999D01*
X291499Y324001D02*
X292499Y323001D01*
X294498D01*
X295498Y324001D01*
Y327999D01*
X294498Y328999D01*
X292499D01*
X291499Y327999D01*
Y327000D01*
X292499Y326000D01*
X295498D01*
X479007Y460000D02*
X478007Y461000D01*
X476008D01*
X475008Y460000D01*
Y456001D01*
X476008Y455002D01*
X478007D01*
X479007Y456001D01*
X481006Y455002D02*
X483006D01*
X482006D01*
Y461000D01*
X481006Y460000D01*
X486005D02*
X487004Y461000D01*
X489004D01*
X490003Y460000D01*
Y459000D01*
X489004Y458001D01*
X490003Y457001D01*
Y456001D01*
X489004Y455002D01*
X487004D01*
X486005Y456001D01*
Y457001D01*
X487004Y458001D01*
X486005Y459000D01*
Y460000D01*
X487004Y458001D02*
X489004D01*
X569501Y393999D02*
X568502Y394999D01*
X566502D01*
X565503Y393999D01*
Y390000D01*
X566502Y389001D01*
X568502D01*
X569501Y390000D01*
X571501Y389001D02*
X573500D01*
X572500D01*
Y394999D01*
X571501Y393999D01*
X576499Y394999D02*
X580498D01*
Y393999D01*
X576499Y390000D01*
Y389001D01*
X665501Y379744D02*
X664501Y380744D01*
X662502D01*
X661503Y379744D01*
Y375746D01*
X662502Y374746D01*
X664501D01*
X665501Y375746D01*
X667501Y374746D02*
X669500D01*
X668500D01*
Y380744D01*
X667501Y379744D01*
X676498Y380744D02*
X674498Y379744D01*
X672499Y377745D01*
Y375746D01*
X673499Y374746D01*
X675498D01*
X676498Y375746D01*
Y376745D01*
X675498Y377745D01*
X672499D01*
X814501Y518999D02*
X813502Y519999D01*
X811502D01*
X810502Y518999D01*
Y515000D01*
X811502Y514001D01*
X813502D01*
X814501Y515000D01*
X816500Y514001D02*
X818500D01*
X817500D01*
Y519999D01*
X816500Y518999D01*
X825498Y519999D02*
X821499D01*
Y517000D01*
X823498Y517999D01*
X824498D01*
X825498Y517000D01*
Y515000D01*
X824498Y514001D01*
X822498D01*
X821499Y515000D01*
X569501Y353999D02*
X568502Y354999D01*
X566502D01*
X565503Y353999D01*
Y350001D01*
X566502Y349001D01*
X568502D01*
X569501Y350001D01*
X571501Y349001D02*
X573500D01*
X572500D01*
Y354999D01*
X571501Y353999D01*
X579498Y349001D02*
Y354999D01*
X576499Y352000D01*
X580498D01*
X693501Y379999D02*
X692502Y380999D01*
X690502D01*
X689502Y379999D01*
Y376000D01*
X690502Y375001D01*
X692502D01*
X693501Y376000D01*
X695500Y375001D02*
X697500D01*
X696500D01*
Y380999D01*
X695500Y379999D01*
X700499D02*
X701498Y380999D01*
X703498D01*
X704498Y379999D01*
Y378999D01*
X703498Y378000D01*
X702498D01*
X703498D01*
X704498Y377000D01*
Y376000D01*
X703498Y375001D01*
X701498D01*
X700499Y376000D01*
X720501Y379999D02*
X719501Y380999D01*
X717502D01*
X716503Y379999D01*
Y376000D01*
X717502Y375001D01*
X719501D01*
X720501Y376000D01*
X722501Y375001D02*
X724500D01*
X723500D01*
Y380999D01*
X722501Y379999D01*
X731498Y375001D02*
X727499D01*
X731498Y378999D01*
Y379999D01*
X730498Y380999D01*
X728499D01*
X727499Y379999D01*
X440001Y461501D02*
X439001Y460501D01*
Y458502D01*
X440001Y457502D01*
X443999D01*
X444999Y458502D01*
Y460501D01*
X443999Y461501D01*
X444999Y463500D02*
Y465499D01*
Y464500D01*
X439001D01*
X440001Y463500D01*
X444999Y468498D02*
Y470498D01*
Y469498D01*
X439001D01*
X440001Y468498D01*
X497001Y201501D02*
X496001Y200501D01*
Y198502D01*
X497001Y197502D01*
X500999D01*
X501999Y198502D01*
Y200501D01*
X500999Y201501D01*
X501999Y203500D02*
Y205500D01*
Y204500D01*
X496001D01*
X497001Y203500D01*
Y208499D02*
X496001Y209498D01*
Y211498D01*
X497001Y212497D01*
X500999D01*
X501999Y211498D01*
Y209498D01*
X500999Y208499D01*
X497001D01*
X674000Y518999D02*
X673001Y519999D01*
X671001D01*
X670002Y518999D01*
Y515000D01*
X671001Y514001D01*
X673001D01*
X674000Y515000D01*
X676000D02*
X676999Y514001D01*
X678999D01*
X679998Y515000D01*
Y518999D01*
X678999Y519999D01*
X676999D01*
X676000Y518999D01*
Y517999D01*
X676999Y517000D01*
X679998D01*
X415001Y468000D02*
X414001Y467001D01*
Y465001D01*
X415001Y464002D01*
X418999D01*
X419999Y465001D01*
Y467001D01*
X418999Y468000D01*
X415001Y470000D02*
X414001Y470999D01*
Y472999D01*
X415001Y473998D01*
X416000D01*
X417000Y472999D01*
X418000Y473998D01*
X418999D01*
X419999Y472999D01*
Y470999D01*
X418999Y470000D01*
X418000D01*
X417000Y470999D01*
X416000Y470000D01*
X415001D01*
X417000Y470999D02*
Y472999D01*
X309000Y464999D02*
X308001Y465999D01*
X306001D01*
X305002Y464999D01*
Y461000D01*
X306001Y460001D01*
X308001D01*
X309000Y461000D01*
X314998Y465999D02*
X312999Y464999D01*
X311000Y463000D01*
Y461000D01*
X311999Y460001D01*
X313999D01*
X314998Y461000D01*
Y462000D01*
X313999Y463000D01*
X311000D01*
X282000Y466999D02*
X281001Y467999D01*
X279001D01*
X278002Y466999D01*
Y463000D01*
X279001Y462001D01*
X281001D01*
X282000Y463000D01*
X287998Y467999D02*
X284000D01*
Y465000D01*
X285999Y465999D01*
X286999D01*
X287998Y465000D01*
Y463000D01*
X286999Y462001D01*
X284999D01*
X284000Y463000D01*
X544000Y644999D02*
X543001Y645999D01*
X541001D01*
X540002Y644999D01*
Y641000D01*
X541001Y640001D01*
X543001D01*
X544000Y641000D01*
X548999Y640001D02*
Y645999D01*
X546000Y643000D01*
X549998D01*
X603000Y353999D02*
X602001Y354999D01*
X600001D01*
X599002Y353999D01*
Y350001D01*
X600001Y349001D01*
X602001D01*
X603000Y350001D01*
X605000Y353999D02*
X605999Y354999D01*
X607999D01*
X608998Y353999D01*
Y353000D01*
X607999Y352000D01*
X606999D01*
X607999D01*
X608998Y351000D01*
Y350001D01*
X607999Y349001D01*
X605999D01*
X605000Y350001D01*
X332000Y605999D02*
X331001Y606999D01*
X329001D01*
X328002Y605999D01*
Y602000D01*
X329001Y601001D01*
X331001D01*
X332000Y602000D01*
X337998Y601001D02*
X334000D01*
X337998Y605000D01*
Y605999D01*
X336999Y606999D01*
X334999D01*
X334000Y605999D01*
X317000Y579999D02*
X316000Y580999D01*
X314001D01*
X313001Y579999D01*
Y576001D01*
X314001Y575001D01*
X316000D01*
X317000Y576001D01*
X318999Y575001D02*
X320999D01*
X319999D01*
Y580999D01*
X318999Y579999D01*
D14*
X303000Y99000D02*
X305000D01*
X303000Y198000D02*
X303000Y99000D01*
X303000Y198000D02*
X305000Y198000D01*
X340500Y198000D02*
X355000D01*
X305000Y198000D02*
X319500D01*
X305000Y99000D02*
X355000D01*
X355000Y198000D01*
X319500Y198000D02*
X340500Y198000D01*
X303000Y219000D02*
X305000D01*
X303000Y318000D02*
X303000Y219000D01*
X303000Y318000D02*
X305000Y318000D01*
X340500Y318000D02*
X355000D01*
X305000Y318000D02*
X319500D01*
X305000Y219000D02*
X355000D01*
X355000Y318000D01*
X319500Y318000D02*
X340500Y318000D01*
X219000Y504000D02*
X254000D01*
X219000Y434000D02*
X254000D01*
Y504000D01*
X219000Y434000D02*
Y504000D01*
X1000Y405000D02*
X151000D01*
X1000Y329000D02*
X151000D01*
Y405000D01*
X1000Y329000D02*
X1000Y405000D01*
X151000D02*
X189000D01*
X151000Y329000D02*
X189000D01*
Y405000D01*
X151000Y329000D02*
Y405000D01*
X211000Y570000D02*
X246000D01*
X211000Y640000D02*
X246000D01*
X211000Y570000D02*
Y640000D01*
X246000Y570000D02*
Y640000D01*
X1000Y605000D02*
X151000D01*
X1000Y529000D02*
X151000D01*
Y605000D01*
X1000Y529000D02*
X1000Y605000D01*
X151000D02*
X189000D01*
X151000Y529000D02*
X189000D01*
Y605000D01*
X151000Y529000D02*
Y605000D01*
X1000Y505000D02*
X151000D01*
X1000Y429000D02*
X151000D01*
Y505000D01*
X1000Y429000D02*
X1000Y505000D01*
X151000D02*
X189000D01*
X151000Y429000D02*
X189000D01*
Y505000D01*
X151000Y429000D02*
Y505000D01*
X794000Y178000D02*
X801000D01*
Y307000D01*
X794000D02*
X801000D01*
X692000Y78664D02*
X695332Y72000D01*
X698664Y78664D01*
X706995Y72000D02*
X703663D01*
X701997Y73666D01*
Y76998D01*
X703663Y78664D01*
X706995D01*
X708661Y76998D01*
Y75332D01*
X701997D01*
X711993Y78664D02*
Y72000D01*
Y75332D01*
X713660Y76998D01*
X715326Y78664D01*
X716992D01*
X731987Y80331D02*
X733653Y81997D01*
X736985D01*
X738652Y80331D01*
Y73666D01*
X736985Y72000D01*
X733653D01*
X731987Y73666D01*
Y80331D01*
X741984Y72000D02*
Y73666D01*
X743650D01*
Y72000D01*
X741984D01*
X750314Y80331D02*
X751981Y81997D01*
X755313D01*
X756979Y80331D01*
Y73666D01*
X755313Y72000D01*
X751981D01*
X750314Y73666D01*
Y80331D01*
X760311Y72000D02*
Y73666D01*
X761977D01*
Y72000D01*
X760311D01*
X768642D02*
X771974D01*
X770308D01*
Y81997D01*
X768642Y80331D01*
X688664Y100331D02*
X686998Y101997D01*
X683666D01*
X682000Y100331D01*
Y93666D01*
X683666Y92000D01*
X686998D01*
X688664Y93666D01*
X693663Y92000D02*
X696995D01*
X698661Y93666D01*
Y96998D01*
X696995Y98665D01*
X693663D01*
X691997Y96998D01*
Y93666D01*
X693663Y92000D01*
X701994D02*
Y98665D01*
X706992D01*
X708658Y96998D01*
Y92000D01*
X713656Y100331D02*
Y98665D01*
X711990D01*
X715323D01*
X713656D01*
Y93666D01*
X715323Y92000D01*
X720321Y98665D02*
Y92000D01*
Y95332D01*
X721987Y96998D01*
X723653Y98665D01*
X725319D01*
X731984Y92000D02*
X735316D01*
X736982Y93666D01*
Y96998D01*
X735316Y98665D01*
X731984D01*
X730318Y96998D01*
Y93666D01*
X731984Y92000D01*
X740314D02*
X743647D01*
X741981D01*
Y101997D01*
X740314D01*
X758642D02*
Y95332D01*
X761974Y92000D01*
X765306Y95332D01*
Y101997D01*
X768639D02*
Y93666D01*
X770305Y92000D01*
X773637D01*
X775303Y93666D01*
Y101997D01*
X778635Y92000D02*
Y101997D01*
X781968Y98665D01*
X785300Y101997D01*
Y92000D01*
D15*
X528998Y625998D02*
X529550Y625998D01*
X560450D02*
X561002Y625998D01*
X535000Y609000D02*
X555000D01*
X528998Y597999D02*
Y625998D01*
X561002Y597999D02*
Y625998D01*
X528998Y597999D02*
X561002D01*
D16*
X697000Y260475D02*
D03*
X372000Y373477D02*
D03*
D17*
X697001Y267275D02*
D03*
X372002Y380275D02*
D03*
D18*
X529923Y95923D02*
D03*
D19*
X534730Y100730D02*
D03*
M02*
