G04*
G04 #@! TF.GenerationSoftware,Altium Limited,Altium Designer,24.2.2 (26)*
G04*
G04 Layer_Color=16711935*
%FSLAX44Y44*%
%MOMM*%
G71*
G04*
G04 #@! TF.SameCoordinates,CC1128A4-4406-4156-BFDA-932D597DC64E*
G04*
G04*
G04 #@! TF.FilePolarity,Negative*
G04*
G01*
G75*
%ADD58C,1.6000*%
%ADD59R,1.6000X1.6000*%
%ADD60R,1.6000X1.6000*%
%ADD61R,1.4000X1.4000*%
%ADD62C,1.4000*%
%ADD63R,2.8000X2.8000*%
%ADD64C,2.8000*%
G04:AMPARAMS|DCode=65|XSize=2.8mm|YSize=2.8mm|CornerRadius=0mm|HoleSize=0mm|Usage=FLASHONLY|Rotation=270.000|XOffset=0mm|YOffset=0mm|HoleType=Round|Shape=Octagon|*
%AMOCTAGOND65*
4,1,8,-0.7000,-1.4000,0.7000,-1.4000,1.4000,-0.7000,1.4000,0.7000,0.7000,1.4000,-0.7000,1.4000,-1.4000,0.7000,-1.4000,-0.7000,-0.7000,-1.4000,0.0*
%
%ADD65OCTAGOND65*%

%ADD66C,1.8000*%
%ADD67R,1.8000X1.8000*%
%ADD68C,1.2400*%
D58*
X299000Y51000D02*
D03*
X400000Y229000D02*
D03*
Y203600D02*
D03*
X197400Y51000D02*
D03*
X222800D02*
D03*
X248200D02*
D03*
X273600D02*
D03*
X456898Y229201D02*
D03*
Y203801D02*
D03*
X429000Y76800D02*
D03*
Y102200D02*
D03*
Y280000D02*
D03*
Y254600D02*
D03*
Y203800D02*
D03*
Y178400D02*
D03*
Y127600D02*
D03*
Y305400D02*
D03*
Y229200D02*
D03*
Y153000D02*
D03*
Y51400D02*
D03*
X787000Y613000D02*
D03*
X837000D02*
D03*
X812000Y613500D02*
D03*
X645000Y613000D02*
D03*
X695000D02*
D03*
X670000Y613500D02*
D03*
D59*
X400000Y254400D02*
D03*
X456898Y254601D02*
D03*
X429000Y330800D02*
D03*
D60*
X172000Y51000D02*
D03*
D61*
X329000Y173000D02*
D03*
Y293000D02*
D03*
D62*
Y148000D02*
D03*
Y123000D02*
D03*
Y268000D02*
D03*
Y243000D02*
D03*
D63*
X236000Y487000D02*
D03*
X170000Y387000D02*
D03*
X229000Y587000D02*
D03*
X170000D02*
D03*
Y487000D02*
D03*
D64*
X236000Y451000D02*
D03*
X170000Y347000D02*
D03*
X229000Y623000D02*
D03*
X170000Y547000D02*
D03*
Y447000D02*
D03*
D65*
X852000Y580500D02*
D03*
X772000D02*
D03*
X710000D02*
D03*
X630000D02*
D03*
D66*
X786000Y294000D02*
D03*
Y268000D02*
D03*
Y243000D02*
D03*
Y218000D02*
D03*
D67*
Y193000D02*
D03*
D68*
X521000Y229000D02*
D03*
M02*
