G04*
G04 #@! TF.GenerationSoftware,Altium Limited,Altium Designer,24.2.2 (26)*
G04*
G04 Layer_Color=255*
%FSLAX44Y44*%
%MOMM*%
G71*
G04*
G04 #@! TF.SameCoordinates,CC1128A4-4406-4156-BFDA-932D597DC64E*
G04*
G04*
G04 #@! TF.FilePolarity,Positive*
G04*
G01*
G75*
%ADD20R,0.7250X0.6500*%
%ADD21C,0.6300*%
%ADD22R,1.5000X1.5000*%
%ADD23R,0.6500X0.7250*%
%ADD24R,1.0500X0.9500*%
%ADD25P,2.1213X4X270.0*%
G04:AMPARAMS|DCode=26|XSize=0.725mm|YSize=0.65mm|CornerRadius=0mm|HoleSize=0mm|Usage=FLASHONLY|Rotation=225.000|XOffset=0mm|YOffset=0mm|HoleType=Round|Shape=Rectangle|*
%AMROTATEDRECTD26*
4,1,4,0.0265,0.4861,0.4861,0.0265,-0.0265,-0.4861,-0.4861,-0.0265,0.0265,0.4861,0.0*
%
%ADD26ROTATEDRECTD26*%

G04:AMPARAMS|DCode=27|XSize=0.8mm|YSize=0.7mm|CornerRadius=0.175mm|HoleSize=0mm|Usage=FLASHONLY|Rotation=90.000|XOffset=0mm|YOffset=0mm|HoleType=Round|Shape=RoundedRectangle|*
%AMROUNDEDRECTD27*
21,1,0.8000,0.3500,0,0,90.0*
21,1,0.4500,0.7000,0,0,90.0*
1,1,0.3500,0.1750,0.2250*
1,1,0.3500,0.1750,-0.2250*
1,1,0.3500,-0.1750,-0.2250*
1,1,0.3500,-0.1750,0.2250*
%
%ADD27ROUNDEDRECTD27*%
G04:AMPARAMS|DCode=28|XSize=0.55mm|YSize=0.8mm|CornerRadius=0.1375mm|HoleSize=0mm|Usage=FLASHONLY|Rotation=270.000|XOffset=0mm|YOffset=0mm|HoleType=Round|Shape=RoundedRectangle|*
%AMROUNDEDRECTD28*
21,1,0.5500,0.5250,0,0,270.0*
21,1,0.2750,0.8000,0,0,270.0*
1,1,0.2750,-0.2625,-0.1375*
1,1,0.2750,-0.2625,0.1375*
1,1,0.2750,0.2625,0.1375*
1,1,0.2750,0.2625,-0.1375*
%
%ADD28ROUNDEDRECTD28*%
%ADD29R,1.2500X1.0000*%
%ADD30R,1.6000X2.3000*%
%ADD31R,1.5000X1.7000*%
%ADD32R,1.0000X0.8000*%
%ADD33O,0.5500X1.0000*%
%ADD34O,1.0000X0.4000*%
%ADD35O,0.4000X1.0000*%
%ADD36R,2.1500X0.9500*%
%ADD37R,2.1500X3.2500*%
G04:AMPARAMS|DCode=38|XSize=2mm|YSize=2.4mm|CornerRadius=0.25mm|HoleSize=0mm|Usage=FLASHONLY|Rotation=270.000|XOffset=0mm|YOffset=0mm|HoleType=Round|Shape=RoundedRectangle|*
%AMROUNDEDRECTD38*
21,1,2.0000,1.9000,0,0,270.0*
21,1,1.5000,2.4000,0,0,270.0*
1,1,0.5000,-0.9500,-0.7500*
1,1,0.5000,-0.9500,0.7500*
1,1,0.5000,0.9500,0.7500*
1,1,0.5000,0.9500,-0.7500*
%
%ADD38ROUNDEDRECTD38*%
%ADD58C,1.6000*%
%ADD59R,1.6000X1.6000*%
%ADD61R,1.4000X1.4000*%
%ADD62C,1.4000*%
%ADD70R,1.4000X1.4000*%
%ADD71R,1.2000X1.2000*%
%ADD72C,1.2000*%
%ADD73R,2.6000X2.6000*%
%ADD74C,2.6000*%
G04:AMPARAMS|DCode=75|XSize=2.6mm|YSize=2.6mm|CornerRadius=0mm|HoleSize=0mm|Usage=FLASHONLY|Rotation=270.000|XOffset=0mm|YOffset=0mm|HoleType=Round|Shape=Octagon|*
%AMOCTAGOND75*
4,1,8,-0.6500,-1.3000,0.6500,-1.3000,1.3000,-0.6500,1.3000,0.6500,0.6500,1.3000,-0.6500,1.3000,-1.3000,0.6500,-1.3000,-0.6500,-0.6500,-1.3000,0.0*
%
%ADD75OCTAGOND75*%

G36*
G01X485750Y387500D02*
G01Y394750D01*
G02X491250I2750J0D01*
G01Y387500D01*
G01X485750D01*
D02*
G37*
G36*
G01X609000Y291000D02*
G03X611000Y289000I2000J-0D01*
G03X613000Y291000I0J2000D01*
G01Y299000D01*
G01X609000D01*
G01X609000Y291000D01*
D02*
G37*
D20*
X507121Y367000D02*
D03*
X518881D02*
D03*
X276121Y173000D02*
D03*
X287881D02*
D03*
X317000Y346000D02*
D03*
X328760D02*
D03*
X305120Y326000D02*
D03*
X316880D02*
D03*
X749121Y363000D02*
D03*
X760881D02*
D03*
X611120Y312000D02*
D03*
X622880D02*
D03*
X578881Y379000D02*
D03*
X567121D02*
D03*
X567120Y342000D02*
D03*
X578880D02*
D03*
X240879Y531000D02*
D03*
X229119D02*
D03*
X811879D02*
D03*
X800119D02*
D03*
X823880Y505000D02*
D03*
X812120D02*
D03*
X488879Y474000D02*
D03*
X477119D02*
D03*
X658121Y531000D02*
D03*
X669881D02*
D03*
X598121Y376000D02*
D03*
X609881D02*
D03*
X477000Y446000D02*
D03*
X488760D02*
D03*
X682000Y505000D02*
D03*
X670240D02*
D03*
X609880Y342000D02*
D03*
X598120D02*
D03*
X298121Y591000D02*
D03*
X309881D02*
D03*
D21*
X429100Y546600D02*
D03*
X365600D02*
D03*
X365600Y559300D02*
D03*
X365600Y572000D02*
D03*
Y597400D02*
D03*
Y610100D02*
D03*
X365600Y622800D02*
D03*
X378300Y546600D02*
D03*
Y559300D02*
D03*
Y572000D02*
D03*
Y597400D02*
D03*
Y610100D02*
D03*
Y622800D02*
D03*
X391000Y546600D02*
D03*
Y559300D02*
D03*
Y572000D02*
D03*
Y597400D02*
D03*
Y610100D02*
D03*
Y622800D02*
D03*
X403700Y546600D02*
D03*
Y559300D02*
D03*
Y572000D02*
D03*
X416400Y546600D02*
D03*
Y559300D02*
D03*
X416400Y572000D02*
D03*
X416400Y584700D02*
D03*
Y597400D02*
D03*
X416400Y610100D02*
D03*
X416400Y622800D02*
D03*
X429100Y559300D02*
D03*
X429100Y572000D02*
D03*
Y584700D02*
D03*
Y597400D02*
D03*
Y610100D02*
D03*
X429100Y622800D02*
D03*
X441800Y546600D02*
D03*
Y559300D02*
D03*
Y572000D02*
D03*
Y584700D02*
D03*
Y597400D02*
D03*
Y610100D02*
D03*
Y622800D02*
D03*
X454500Y546600D02*
D03*
Y559300D02*
D03*
X454500Y572000D02*
D03*
X454500Y584700D02*
D03*
Y597400D02*
D03*
Y610100D02*
D03*
Y622800D02*
D03*
X467200Y546600D02*
D03*
Y559300D02*
D03*
Y572000D02*
D03*
Y584700D02*
D03*
Y597400D02*
D03*
Y610100D02*
D03*
Y622800D02*
D03*
X479900Y546600D02*
D03*
Y559300D02*
D03*
X479900Y572000D02*
D03*
X479900Y584700D02*
D03*
Y597400D02*
D03*
Y610100D02*
D03*
Y622800D02*
D03*
X492600Y546600D02*
D03*
X492600Y559300D02*
D03*
X492600Y572000D02*
D03*
Y584700D02*
D03*
Y597400D02*
D03*
Y610100D02*
D03*
X492600Y622800D02*
D03*
D22*
X697000Y279500D02*
D03*
Y244500D02*
D03*
X372000Y392500D02*
D03*
Y357500D02*
D03*
D23*
X673000Y279879D02*
D03*
Y268119D02*
D03*
X652000Y268121D02*
D03*
Y279881D02*
D03*
X276000Y136240D02*
D03*
Y148000D02*
D03*
X670000Y362881D02*
D03*
Y351121D02*
D03*
X697000Y351120D02*
D03*
Y362880D02*
D03*
X722000Y351120D02*
D03*
Y362880D02*
D03*
X479000Y51760D02*
D03*
Y40000D02*
D03*
Y127760D02*
D03*
Y116000D02*
D03*
X272000Y519121D02*
D03*
Y530881D02*
D03*
X541000Y342879D02*
D03*
Y331119D02*
D03*
X401000Y391879D02*
D03*
Y380119D02*
D03*
X444000Y380240D02*
D03*
Y392000D02*
D03*
X464000Y380121D02*
D03*
Y391881D02*
D03*
X580000Y623879D02*
D03*
Y612119D02*
D03*
Y590879D02*
D03*
Y579119D02*
D03*
X494000Y343000D02*
D03*
Y331240D02*
D03*
X722000Y282121D02*
D03*
Y293881D02*
D03*
X739000Y282121D02*
D03*
Y293881D02*
D03*
X757000Y282121D02*
D03*
Y293881D02*
D03*
X424000Y392000D02*
D03*
Y380240D02*
D03*
X511000Y199000D02*
D03*
Y210760D02*
D03*
X428000Y463000D02*
D03*
Y474760D02*
D03*
X310000Y439000D02*
D03*
Y450760D02*
D03*
D24*
X645250Y377250D02*
D03*
X626750Y362750D02*
D03*
X645250Y362750D02*
D03*
X626750Y377250D02*
D03*
D25*
X543374Y109374D02*
D03*
X518626Y84625D02*
D03*
D26*
X562843Y127843D02*
D03*
X571158Y136158D02*
D03*
D27*
X578999Y407999D02*
D03*
X564999D02*
D03*
D28*
X790150Y473525D02*
D03*
X811850Y464000D02*
D03*
X790150Y454475D02*
D03*
X649150D02*
D03*
X670850Y464000D02*
D03*
X649150Y473525D02*
D03*
D29*
X456001Y473999D02*
D03*
Y451999D02*
D03*
X283001Y450999D02*
D03*
Y428999D02*
D03*
D30*
X298000Y557000D02*
D03*
X336000D02*
D03*
D31*
X297500Y623000D02*
D03*
X262500D02*
D03*
D32*
X378500Y518999D02*
D03*
X361500D02*
D03*
X416500Y519001D02*
D03*
X433500D02*
D03*
X324498Y591001D02*
D03*
X341498D02*
D03*
D33*
X498000Y392500D02*
D03*
X507500Y419500D02*
D03*
X507500Y392500D02*
D03*
X488500Y419500D02*
D03*
D34*
X625000Y272000D02*
D03*
X541000Y272000D02*
D03*
X625000Y224000D02*
D03*
Y232000D02*
D03*
X625000Y240000D02*
D03*
Y248000D02*
D03*
Y256000D02*
D03*
Y264000D02*
D03*
X625000Y280000D02*
D03*
X541000Y224000D02*
D03*
X541000Y232000D02*
D03*
Y240000D02*
D03*
Y264000D02*
D03*
Y256000D02*
D03*
Y248000D02*
D03*
X541000Y280000D02*
D03*
D35*
X555000Y210000D02*
D03*
X563000Y210000D02*
D03*
X571000D02*
D03*
X579000D02*
D03*
X587000D02*
D03*
X595000D02*
D03*
X611000Y210000D02*
D03*
X603000Y210000D02*
D03*
X595000Y294000D02*
D03*
X603000Y294000D02*
D03*
X587000Y294000D02*
D03*
X579000D02*
D03*
X571000D02*
D03*
X563000D02*
D03*
X555000D02*
D03*
D36*
X340000Y497000D02*
D03*
Y451000D02*
D03*
Y474000D02*
D03*
D37*
X398000D02*
D03*
D38*
X545000Y569000D02*
D03*
Y623000D02*
D03*
D58*
X786000Y294000D02*
D03*
Y268000D02*
D03*
Y243000D02*
D03*
Y218000D02*
D03*
D59*
Y193000D02*
D03*
D61*
X400000Y254400D02*
D03*
X456898Y254601D02*
D03*
X429000Y330800D02*
D03*
D62*
X299000Y51000D02*
D03*
X400000Y229000D02*
D03*
Y203600D02*
D03*
X197400Y51000D02*
D03*
X222800D02*
D03*
X248200D02*
D03*
X273600D02*
D03*
X456898Y229201D02*
D03*
Y203801D02*
D03*
X429000Y76800D02*
D03*
Y102200D02*
D03*
Y280000D02*
D03*
Y254600D02*
D03*
Y203800D02*
D03*
Y178400D02*
D03*
Y127600D02*
D03*
Y305400D02*
D03*
Y229200D02*
D03*
Y153000D02*
D03*
Y51400D02*
D03*
X787000Y613000D02*
D03*
X837000D02*
D03*
X812000Y613500D02*
D03*
X645000Y613000D02*
D03*
X695000D02*
D03*
X670000Y613500D02*
D03*
D70*
X172000Y51000D02*
D03*
D71*
X329000Y173000D02*
D03*
Y293000D02*
D03*
D72*
Y148000D02*
D03*
Y123000D02*
D03*
Y268000D02*
D03*
Y243000D02*
D03*
D73*
X236000Y487000D02*
D03*
X170000Y387000D02*
D03*
X229000Y587000D02*
D03*
X170000D02*
D03*
Y487000D02*
D03*
D74*
X236000Y451000D02*
D03*
X170000Y347000D02*
D03*
X229000Y623000D02*
D03*
X170000Y547000D02*
D03*
Y447000D02*
D03*
D75*
X852000Y580500D02*
D03*
X772000D02*
D03*
X710000D02*
D03*
X630000D02*
D03*
M02*
