G04*
G04 #@! TF.GenerationSoftware,Altium Limited,Altium Designer,24.2.2 (26)*
G04*
G04 Layer_Color=16711935*
%FSLAX44Y44*%
%MOMM*%
G71*
G04*
G04 #@! TF.SameCoordinates,CC1128A4-4406-4156-BFDA-932D597DC64E*
G04*
G04*
G04 #@! TF.FilePolarity,Positive*
G04*
G01*
G75*
%ADD10C,0.2500*%
%ADD13C,0.1500*%
%ADD77C,0.1000*%
G36*
X504100Y621199D02*
X495600Y629700D01*
X504100D01*
Y621199D01*
D02*
G37*
D10*
X645750Y376000D02*
G03*
X645750Y376000I-1250J0D01*
G01*
X489749Y403000D02*
G03*
X489749Y403000I-1250J0D01*
G01*
X606750Y274500D02*
G03*
X606750Y274500I-1250J0D01*
G01*
X360250Y499000D02*
G03*
X360250Y499000I-1250J0D01*
G01*
X495350Y619700D02*
G03*
X495350Y619700I-1250J0D01*
G01*
D13*
X543500Y344579D02*
X537502D01*
Y347578D01*
X538502Y348578D01*
X540501D01*
X541501Y347578D01*
Y344579D01*
Y346578D02*
X543500Y348578D01*
X542500Y350577D02*
X543500Y351577D01*
Y353576D01*
X542500Y354576D01*
X538502D01*
X537502Y353576D01*
Y351577D01*
X538502Y350577D01*
X539501D01*
X540501Y351577D01*
Y354576D01*
X505421Y369500D02*
Y363502D01*
X502422D01*
X501422Y364501D01*
Y366501D01*
X502422Y367500D01*
X505421D01*
X503421D02*
X501422Y369500D01*
X495424D02*
X499423D01*
X495424Y365501D01*
Y364501D01*
X496424Y363502D01*
X498423D01*
X499423Y364501D01*
X493425D02*
X492425Y363502D01*
X490426D01*
X489426Y364501D01*
Y365501D01*
X490426Y366501D01*
X491425D01*
X490426D01*
X489426Y367500D01*
Y368500D01*
X490426Y369500D01*
X492425D01*
X493425Y368500D01*
X700499Y243513D02*
X694501D01*
X697500D01*
Y239514D01*
X700499D01*
X694501D01*
X700499Y237515D02*
X694501D01*
Y233516D01*
Y227518D02*
Y231517D01*
X698500Y227518D01*
X699500D01*
X700499Y228518D01*
Y230517D01*
X699500Y231517D01*
X675500Y281579D02*
X669502D01*
Y284578D01*
X670502Y285578D01*
X672501D01*
X673501Y284578D01*
Y281579D01*
Y283578D02*
X675500Y285578D01*
Y287577D02*
Y289576D01*
Y288577D01*
X669502D01*
X670502Y287577D01*
X674500Y292575D02*
X675500Y293575D01*
Y295574D01*
X674500Y296574D01*
X670502D01*
X669502Y295574D01*
Y293575D01*
X670502Y292575D01*
X671501D01*
X672501Y293575D01*
Y296574D01*
X649500Y266421D02*
X655498D01*
Y263422D01*
X654498Y262422D01*
X652499D01*
X651499Y263422D01*
Y266421D01*
Y264421D02*
X649500Y262422D01*
Y256424D02*
Y260422D01*
X653499Y256424D01*
X654498D01*
X655498Y257423D01*
Y259423D01*
X654498Y260422D01*
Y254424D02*
X655498Y253425D01*
Y251425D01*
X654498Y250426D01*
X650500D01*
X649500Y251425D01*
Y253425D01*
X650500Y254424D01*
X654498D01*
X274421Y175500D02*
Y169502D01*
X271422D01*
X270422Y170501D01*
Y172501D01*
X271422Y173500D01*
X274421D01*
X272421D02*
X270422Y175500D01*
X268423Y170501D02*
X267423Y169502D01*
X265424D01*
X264424Y170501D01*
Y171501D01*
X265424Y172501D01*
X266423D01*
X265424D01*
X264424Y173500D01*
Y174500D01*
X265424Y175500D01*
X267423D01*
X268423Y174500D01*
X262425Y175500D02*
X260425D01*
X261425D01*
Y169502D01*
X262425Y170501D01*
X273502Y153699D02*
X272502Y152699D01*
Y150699D01*
X273502Y149700D01*
X277500D01*
X278500Y150699D01*
Y152699D01*
X277500Y153699D01*
X278500Y159697D02*
Y155698D01*
X274501Y159697D01*
X273502D01*
X272502Y158697D01*
Y156698D01*
X273502Y155698D01*
X278500Y161696D02*
Y163695D01*
Y162696D01*
X272502D01*
X273502Y161696D01*
X315300Y348500D02*
Y342502D01*
X312301D01*
X311301Y343501D01*
Y345501D01*
X312301Y346500D01*
X315300D01*
X313301D02*
X311301Y348500D01*
X305303D02*
X309302D01*
X305303Y344501D01*
Y343501D01*
X306303Y342502D01*
X308302D01*
X309302Y343501D01*
X299305Y342502D02*
X301304Y343501D01*
X303304Y345501D01*
Y347500D01*
X302304Y348500D01*
X300305D01*
X299305Y347500D01*
Y346500D01*
X300305Y345501D01*
X303304D01*
X322579Y328498D02*
X321579Y329498D01*
X319580D01*
X318580Y328498D01*
Y324500D01*
X319580Y323500D01*
X321579D01*
X322579Y324500D01*
X324578Y323500D02*
X326577D01*
X325578D01*
Y329498D01*
X324578Y328498D01*
X329576Y324500D02*
X330576Y323500D01*
X332575D01*
X333575Y324500D01*
Y328498D01*
X332575Y329498D01*
X330576D01*
X329576Y328498D01*
Y327499D01*
X330576Y326499D01*
X333575D01*
X747421Y365500D02*
Y359502D01*
X744422D01*
X743422Y360501D01*
Y362501D01*
X744422Y363500D01*
X747421D01*
X745421D02*
X743422Y365500D01*
X737424D02*
X741423D01*
X737424Y361501D01*
Y360501D01*
X738424Y359502D01*
X740423D01*
X741423Y360501D01*
X732426Y365500D02*
Y359502D01*
X735425Y362501D01*
X731426D01*
X608994Y314342D02*
X607994Y315341D01*
X605995D01*
X604995Y314342D01*
Y310343D01*
X605995Y309343D01*
X607994D01*
X608994Y310343D01*
X610993Y315341D02*
X614992D01*
Y314342D01*
X610993Y310343D01*
Y309343D01*
X636000Y368000D02*
X637000Y367001D01*
X638999D01*
X639999Y368000D01*
Y371999D01*
X638999Y372999D01*
X637000D01*
X636000Y371999D01*
Y370000D01*
X637999D01*
X634001Y372999D02*
X632001D01*
X633001D01*
Y367001D01*
X634001Y368000D01*
X667502Y368579D02*
X666502Y367580D01*
Y365580D01*
X667502Y364581D01*
X671500D01*
X672500Y365580D01*
Y367580D01*
X671500Y368579D01*
X672500Y370579D02*
Y372578D01*
Y371578D01*
X666502D01*
X667502Y370579D01*
X666502Y379576D02*
X667502Y377576D01*
X669501Y375577D01*
X671500D01*
X672500Y376577D01*
Y378576D01*
X671500Y379576D01*
X670501D01*
X669501Y378576D01*
Y375577D01*
X694502Y368578D02*
X693502Y367579D01*
Y365579D01*
X694502Y364580D01*
X698500D01*
X699500Y365579D01*
Y367579D01*
X698500Y368578D01*
X699500Y370578D02*
Y372577D01*
Y371577D01*
X693502D01*
X694502Y370578D01*
Y375576D02*
X693502Y376576D01*
Y378575D01*
X694502Y379575D01*
X695501D01*
X696501Y378575D01*
Y377575D01*
Y378575D01*
X697501Y379575D01*
X698500D01*
X699500Y378575D01*
Y376576D01*
X698500Y375576D01*
X719502Y368578D02*
X718502Y367579D01*
Y365579D01*
X719502Y364580D01*
X723500D01*
X724500Y365579D01*
Y367579D01*
X723500Y368578D01*
X724500Y370578D02*
Y372577D01*
Y371577D01*
X718502D01*
X719502Y370578D01*
X724500Y379575D02*
Y375576D01*
X720501Y379575D01*
X719502D01*
X718502Y378575D01*
Y376576D01*
X719502Y375576D01*
X520402Y81453D02*
X516161Y85695D01*
X518281Y83574D01*
X515454Y80746D01*
X517575Y78626D01*
X513333Y82867D01*
X516161Y77212D02*
X511920Y81453D01*
X509092Y78626D01*
X507678Y77212D02*
X506264Y75798D01*
X506971Y76505D01*
X511213Y72264D01*
Y73678D01*
X559873Y128408D02*
X564114Y124167D01*
X561994Y122046D01*
X560580Y122046D01*
X559166Y123460D01*
Y124874D01*
X561287Y126994D01*
X559873Y125581D02*
X557045Y125581D01*
X555632Y124167D02*
X554218Y122753D01*
X554925Y123460D01*
X559166Y119219D01*
Y120633D01*
X575998Y405002D02*
X572000D01*
Y406002D01*
X575998Y410000D01*
Y411000D01*
X572000D01*
X570000D02*
X568001D01*
X569001D01*
Y405002D01*
X570000Y406002D01*
X572000Y381498D02*
X571000Y382498D01*
X569001D01*
X568001Y381498D01*
Y377499D01*
X569001Y376500D01*
X571000D01*
X572000Y377499D01*
X573999Y376500D02*
X575998D01*
X574999D01*
Y382498D01*
X573999Y381498D01*
X578997Y382498D02*
X582996D01*
Y381498D01*
X578997Y377499D01*
Y376500D01*
X571119Y343748D02*
X570119Y344748D01*
X568120D01*
X567120Y343748D01*
Y339749D01*
X568120Y338750D01*
X570119D01*
X571119Y339749D01*
X573118Y338750D02*
X575117D01*
X574118D01*
Y344748D01*
X573118Y343748D01*
X581115Y338750D02*
Y344748D01*
X578116Y341749D01*
X582115D01*
X481500Y53460D02*
X475502D01*
Y56459D01*
X476502Y57459D01*
X478501D01*
X479501Y56459D01*
Y53460D01*
Y55459D02*
X481500Y57459D01*
Y59458D02*
Y61457D01*
Y60458D01*
X475502D01*
X476502Y59458D01*
X481500Y68455D02*
Y64456D01*
X477501Y68455D01*
X476502D01*
X475502Y67455D01*
Y65456D01*
X476502Y64456D01*
X481500Y129460D02*
X475502D01*
Y132459D01*
X476502Y133458D01*
X478501D01*
X479501Y132459D01*
Y129460D01*
Y131459D02*
X481500Y133458D01*
Y135458D02*
Y137457D01*
Y136458D01*
X475502D01*
X476502Y135458D01*
X481500Y140456D02*
Y142456D01*
Y141456D01*
X475502D01*
X476502Y140456D01*
X269500Y517421D02*
X275498D01*
Y514422D01*
X274498Y513422D01*
X272499D01*
X271499Y514422D01*
Y517421D01*
Y515421D02*
X269500Y513422D01*
Y507424D02*
Y511423D01*
X273499Y507424D01*
X274498D01*
X275498Y508424D01*
Y510423D01*
X274498Y511423D01*
X269500Y501426D02*
Y505424D01*
X273499Y501426D01*
X274498D01*
X275498Y502425D01*
Y504425D01*
X274498Y505424D01*
X242579Y528500D02*
Y534498D01*
X245578D01*
X246578Y533498D01*
Y531499D01*
X245578Y530499D01*
X242579D01*
X244579D02*
X246578Y528500D01*
X248577D02*
X250577D01*
X249577D01*
Y534498D01*
X248577Y533498D01*
X253576D02*
X254575Y534498D01*
X256575D01*
X257574Y533498D01*
Y532499D01*
X256575Y531499D01*
X257574Y530499D01*
Y529499D01*
X256575Y528500D01*
X254575D01*
X253576Y529499D01*
Y530499D01*
X254575Y531499D01*
X253576Y532499D01*
Y533498D01*
X254575Y531499D02*
X256575D01*
X813579Y528500D02*
Y534498D01*
X816578D01*
X817578Y533498D01*
Y531499D01*
X816578Y530499D01*
X813579D01*
X815579D02*
X817578Y528500D01*
X823576D02*
X819577D01*
X823576Y532499D01*
Y533498D01*
X822576Y534498D01*
X820577D01*
X819577Y533498D01*
X825575Y528500D02*
X827575D01*
X826575D01*
Y534498D01*
X825575Y533498D01*
X814999Y506998D02*
X813999Y507998D01*
X812000D01*
X811000Y506998D01*
Y502999D01*
X812000Y502000D01*
X813999D01*
X814999Y502999D01*
X816998Y502000D02*
X818997D01*
X817998D01*
Y507998D01*
X816998Y506998D01*
X825995Y507998D02*
X821996D01*
Y504999D01*
X823996Y505998D01*
X824995D01*
X825995Y504999D01*
Y502999D01*
X824995Y502000D01*
X822996D01*
X821996Y502999D01*
X803999Y471997D02*
X800000D01*
X798001Y469998D01*
X800000Y467999D01*
X803999D01*
Y465999D02*
X798001D01*
Y463000D01*
X799001Y462000D01*
X802999D01*
X803999Y463000D01*
Y465999D01*
X798001Y456002D02*
Y460001D01*
X802000Y456002D01*
X802999D01*
X803999Y457002D01*
Y459001D01*
X802999Y460001D01*
X490579Y471500D02*
Y477498D01*
X493578D01*
X494578Y476498D01*
Y474499D01*
X493578Y473499D01*
X490579D01*
X492579D02*
X494578Y471500D01*
X496577D02*
X498577D01*
X497577D01*
Y477498D01*
X496577Y476498D01*
X501576Y477498D02*
X505574D01*
Y476498D01*
X501576Y472500D01*
Y471500D01*
X454002Y460500D02*
X453003Y459501D01*
Y457501D01*
X454002Y456502D01*
X458001D01*
X459001Y457501D01*
Y459501D01*
X458001Y460500D01*
X459001Y462500D02*
Y464499D01*
Y463499D01*
X453003D01*
X454002Y462500D01*
X459001Y467498D02*
Y469497D01*
Y468498D01*
X453003D01*
X454002Y467498D01*
X281002Y439000D02*
X280002Y438000D01*
Y436001D01*
X281002Y435001D01*
X285001D01*
X286000Y436001D01*
Y438000D01*
X285001Y439000D01*
X280002Y444998D02*
Y440999D01*
X283001D01*
X282002Y442999D01*
Y443998D01*
X283001Y444998D01*
X285001D01*
X286000Y443998D01*
Y441999D01*
X285001Y440999D01*
X410000Y393000D02*
X404002D01*
Y395999D01*
X405002Y396999D01*
X407001D01*
X408001Y395999D01*
Y393000D01*
Y394999D02*
X410000Y396999D01*
X405002Y398998D02*
X404002Y399998D01*
Y401997D01*
X405002Y402997D01*
X406001D01*
X407001Y401997D01*
Y400997D01*
Y401997D01*
X408001Y402997D01*
X409000D01*
X410000Y401997D01*
Y399998D01*
X409000Y398998D01*
X405002Y404996D02*
X404002Y405996D01*
Y407995D01*
X405002Y408995D01*
X409000D01*
X410000Y407995D01*
Y405996D01*
X409000Y404996D01*
X405002D01*
X441500Y378540D02*
X447498D01*
Y375541D01*
X446498Y374541D01*
X444499D01*
X443499Y375541D01*
Y378540D01*
Y376541D02*
X441500Y374541D01*
Y368543D02*
Y372542D01*
X445499Y368543D01*
X446498D01*
X447498Y369543D01*
Y371542D01*
X446498Y372542D01*
Y366544D02*
X447498Y365544D01*
Y363545D01*
X446498Y362545D01*
X445499D01*
X444499Y363545D01*
X443499Y362545D01*
X442500D01*
X441500Y363545D01*
Y365544D01*
X442500Y366544D01*
X443499D01*
X444499Y365544D01*
X445499Y366544D01*
X446498D01*
X444499Y365544D02*
Y363545D01*
X461500Y378421D02*
X467498D01*
Y375422D01*
X466498Y374422D01*
X464499D01*
X463499Y375422D01*
Y378421D01*
Y376421D02*
X461500Y374422D01*
Y368424D02*
Y372422D01*
X465499Y368424D01*
X466498D01*
X467498Y369423D01*
Y371423D01*
X466498Y372422D01*
X467498Y366424D02*
Y362426D01*
X466498D01*
X462500Y366424D01*
X461500D01*
X656421Y533500D02*
Y527502D01*
X653422D01*
X652422Y528501D01*
Y530501D01*
X653422Y531500D01*
X656421D01*
X654421D02*
X652422Y533500D01*
X650423D02*
X648423D01*
X649423D01*
Y527502D01*
X650423Y528501D01*
X641426Y527502D02*
X643425Y528501D01*
X645424Y530501D01*
Y532500D01*
X644425Y533500D01*
X642425D01*
X641426Y532500D01*
Y531500D01*
X642425Y530501D01*
X645424D01*
X582500Y625579D02*
X576502D01*
Y628578D01*
X577502Y629578D01*
X579501D01*
X580501Y628578D01*
Y625579D01*
Y627578D02*
X582500Y629578D01*
Y631577D02*
Y633576D01*
Y632577D01*
X576502D01*
X577502Y631577D01*
X576502Y640574D02*
Y636575D01*
X579501D01*
X578501Y638575D01*
Y639574D01*
X579501Y640574D01*
X581500D01*
X582500Y639574D01*
Y637575D01*
X581500Y636575D01*
X582500Y592579D02*
X576502D01*
Y595578D01*
X577502Y596578D01*
X579501D01*
X580501Y595578D01*
Y592579D01*
Y594578D02*
X582500Y596578D01*
Y598577D02*
Y600576D01*
Y599577D01*
X576502D01*
X577502Y598577D01*
X582500Y606574D02*
X576502D01*
X579501Y603575D01*
Y607574D01*
X496500Y344700D02*
X490502D01*
Y347699D01*
X491502Y348699D01*
X493501D01*
X494501Y347699D01*
Y344700D01*
Y346699D02*
X496500Y348699D01*
Y350698D02*
Y352697D01*
Y351698D01*
X490502D01*
X491502Y350698D01*
Y355696D02*
X490502Y356696D01*
Y358695D01*
X491502Y359695D01*
X495500D01*
X496500Y358695D01*
Y356696D01*
X495500Y355696D01*
X491502D01*
X599001Y373500D02*
Y379498D01*
X602000D01*
X602999Y378498D01*
Y376499D01*
X602000Y375499D01*
X599001D01*
X601000D02*
X602999Y373500D01*
X604999Y378498D02*
X605999Y379498D01*
X607998D01*
X608998Y378498D01*
Y377499D01*
X607998Y376499D01*
X608998Y375499D01*
Y374500D01*
X607998Y373500D01*
X605999D01*
X604999Y374500D01*
Y375499D01*
X605999Y376499D01*
X604999Y377499D01*
Y378498D01*
X605999Y376499D02*
X607998D01*
X719500Y280421D02*
X725498D01*
Y277422D01*
X724498Y276422D01*
X722499D01*
X721499Y277422D01*
Y280421D01*
Y278421D02*
X719500Y276422D01*
X725498Y274422D02*
Y270424D01*
X724498D01*
X720500Y274422D01*
X719500D01*
X736500Y280421D02*
X742498D01*
Y277422D01*
X741498Y276422D01*
X739499D01*
X738499Y277422D01*
Y280421D01*
Y278421D02*
X736500Y276422D01*
X742498Y270424D02*
Y274422D01*
X739499D01*
X740499Y272423D01*
Y271423D01*
X739499Y270424D01*
X737500D01*
X736500Y271423D01*
Y273423D01*
X737500Y274422D01*
X754500Y280421D02*
X760498D01*
Y277422D01*
X759498Y276422D01*
X757499D01*
X756499Y277422D01*
Y280421D01*
Y278421D02*
X754500Y276422D01*
X759498Y274422D02*
X760498Y273423D01*
Y271423D01*
X759498Y270424D01*
X758499D01*
X757499Y271423D01*
Y272423D01*
Y271423D01*
X756499Y270424D01*
X755500D01*
X754500Y271423D01*
Y273423D01*
X755500Y274422D01*
X426498Y374541D02*
X427498Y375541D01*
Y377540D01*
X426498Y378540D01*
X422500D01*
X421500Y377540D01*
Y375541D01*
X422500Y374541D01*
X421500Y368543D02*
Y372542D01*
X425499Y368543D01*
X426498D01*
X427498Y369543D01*
Y371542D01*
X426498Y372542D01*
Y366544D02*
X427498Y365544D01*
Y363545D01*
X426498Y362545D01*
X422500D01*
X421500Y363545D01*
Y365544D01*
X422500Y366544D01*
X426498D01*
X494459Y448498D02*
X493459Y449498D01*
X491460D01*
X490460Y448498D01*
Y444500D01*
X491460Y443500D01*
X493459D01*
X494459Y444500D01*
X496458Y443500D02*
X498457D01*
X497458D01*
Y449498D01*
X496458Y448498D01*
X501456D02*
X502456Y449498D01*
X504455D01*
X505455Y448498D01*
Y447499D01*
X504455Y446499D01*
X505455Y445499D01*
Y444500D01*
X504455Y443500D01*
X502456D01*
X501456Y444500D01*
Y445499D01*
X502456Y446499D01*
X501456Y447499D01*
Y448498D01*
X502456Y446499D02*
X504455D01*
X508502Y216458D02*
X507502Y215459D01*
Y213459D01*
X508502Y212460D01*
X512500D01*
X513500Y213459D01*
Y215459D01*
X512500Y216458D01*
X513500Y218458D02*
Y220457D01*
Y219457D01*
X507502D01*
X508502Y218458D01*
Y223456D02*
X507502Y224456D01*
Y226455D01*
X508502Y227455D01*
X512500D01*
X513500Y226455D01*
Y224456D01*
X512500Y223456D01*
X508502D01*
X664541Y502501D02*
X665541Y501502D01*
X667540D01*
X668540Y502501D01*
Y506500D01*
X667540Y507500D01*
X665541D01*
X664541Y506500D01*
X662542D02*
X661542Y507500D01*
X659543D01*
X658543Y506500D01*
Y502501D01*
X659543Y501502D01*
X661542D01*
X662542Y502501D01*
Y503501D01*
X661542Y504501D01*
X658543D01*
X425502Y480458D02*
X424502Y479459D01*
Y477459D01*
X425502Y476460D01*
X429500D01*
X430500Y477459D01*
Y479459D01*
X429500Y480458D01*
X425502Y482458D02*
X424502Y483457D01*
Y485457D01*
X425502Y486456D01*
X426501D01*
X427501Y485457D01*
X428501Y486456D01*
X429500D01*
X430500Y485457D01*
Y483457D01*
X429500Y482458D01*
X428501D01*
X427501Y483457D01*
X426501Y482458D01*
X425502D01*
X427501Y483457D02*
Y485457D01*
X307502Y456459D02*
X306502Y455459D01*
Y453459D01*
X307502Y452460D01*
X311500D01*
X312500Y453459D01*
Y455459D01*
X311500Y456459D01*
X306502Y462457D02*
X307502Y460457D01*
X309501Y458458D01*
X311500D01*
X312500Y459458D01*
Y461457D01*
X311500Y462457D01*
X310501D01*
X309501Y461457D01*
Y458458D01*
X592421Y339501D02*
X593421Y338502D01*
X595420D01*
X596420Y339501D01*
Y343500D01*
X595420Y344500D01*
X593421D01*
X592421Y343500D01*
X590422Y339501D02*
X589422Y338502D01*
X587423D01*
X586423Y339501D01*
Y340501D01*
X587423Y341501D01*
X588423D01*
X587423D01*
X586423Y342500D01*
Y343500D01*
X587423Y344500D01*
X589422D01*
X590422Y343500D01*
X316999Y555000D02*
X317998Y554001D01*
X319998D01*
X320997Y555000D01*
Y558999D01*
X319998Y559999D01*
X317998D01*
X316999Y558999D01*
X314999Y559999D02*
X313000D01*
X313999D01*
Y554001D01*
X314999Y555000D01*
X275002Y620000D02*
Y625998D01*
X278001D01*
X279001Y624999D01*
Y622999D01*
X278001Y622000D01*
X275002D01*
X277001D02*
X279001Y620000D01*
X284999D02*
X281000D01*
X284999Y623999D01*
Y624999D01*
X283999Y625998D01*
X282000D01*
X281000Y624999D01*
X362501Y516001D02*
Y521999D01*
X365500D01*
X366500Y520999D01*
Y519000D01*
X365500Y518000D01*
X362501D01*
X364500D02*
X366500Y516001D01*
X368499D02*
X370498D01*
X369499D01*
Y521999D01*
X368499Y520999D01*
X373497D02*
X374497Y521999D01*
X376497D01*
X377496Y520999D01*
Y520000D01*
X376497Y519000D01*
X375497D01*
X376497D01*
X377496Y518000D01*
Y517001D01*
X376497Y516001D01*
X374497D01*
X373497Y517001D01*
X430000Y521999D02*
Y516001D01*
X427001D01*
X426001Y517001D01*
Y519000D01*
X427001Y520000D01*
X430000D01*
X428000D02*
X426001Y521999D01*
X420003Y516001D02*
X422002Y517001D01*
X424002Y519000D01*
Y520999D01*
X423002Y521999D01*
X421003D01*
X420003Y520999D01*
Y520000D01*
X421003Y519000D01*
X424002D01*
X334000Y589000D02*
X334999Y588001D01*
X336999D01*
X337998Y589000D01*
Y592999D01*
X336999Y593999D01*
X334999D01*
X334000Y592999D01*
X328002Y593999D02*
X332000D01*
X328002Y590000D01*
Y589000D01*
X329001Y588001D01*
X331001D01*
X332000Y589000D01*
X296421Y593500D02*
Y587502D01*
X293422D01*
X292422Y588501D01*
Y590501D01*
X293422Y591500D01*
X296421D01*
X294422D02*
X292422Y593500D01*
X287424D02*
Y587502D01*
X290423Y590501D01*
X286424D01*
X662999Y470998D02*
X659000D01*
X657001Y468998D01*
X659000Y466999D01*
X662999D01*
Y465000D02*
X657001D01*
Y462000D01*
X658001Y461001D01*
X661999D01*
X662999Y462000D01*
Y465000D01*
X657001Y459001D02*
Y457002D01*
Y458002D01*
X662999D01*
X661999Y459001D01*
X370002Y363000D02*
X376000D01*
X373001D01*
Y366999D01*
X370002D01*
X376000D01*
X370002Y368998D02*
X376000D01*
Y372997D01*
X371002Y374996D02*
X370002Y375996D01*
Y377995D01*
X371002Y378995D01*
X372001D01*
X373001Y377995D01*
Y376996D01*
Y377995D01*
X374001Y378995D01*
X375000D01*
X376000Y377995D01*
Y375996D01*
X375000Y374996D01*
X490003Y408999D02*
Y403001D01*
X493002D01*
X494001Y404000D01*
Y407999D01*
X493002Y408999D01*
X490003D01*
X496001Y403001D02*
Y407000D01*
X498000Y408999D01*
X499999Y407000D01*
Y403001D01*
Y406000D01*
X496001D01*
X501999Y407999D02*
X502998Y408999D01*
X504998D01*
X505997Y407999D01*
Y407000D01*
X504998Y406000D01*
X503998D01*
X504998D01*
X505997Y405000D01*
Y404000D01*
X504998Y403001D01*
X502998D01*
X501999Y404000D01*
X589998Y249001D02*
Y254999D01*
X586999D01*
X585999Y253999D01*
Y250000D01*
X586999Y249001D01*
X589998D01*
X584000D02*
Y254999D01*
X581001D01*
X580001Y253999D01*
Y250000D01*
X581001Y249001D01*
X584000D01*
X578002Y254999D02*
X576002D01*
X577002D01*
Y249001D01*
X578002Y250000D01*
X371999Y481997D02*
X366001D01*
Y478998D01*
X367001Y477998D01*
X370999D01*
X371999Y478998D01*
Y481997D01*
X366001Y475999D02*
X370000D01*
X371999Y474000D01*
X370000Y472000D01*
X366001D01*
X369000D01*
Y475999D01*
X366001Y466002D02*
Y470001D01*
X370000Y466002D01*
X370999D01*
X371999Y467002D01*
Y469001D01*
X370999Y470001D01*
X546999Y593499D02*
X547999Y594499D01*
Y596498D01*
X546999Y597498D01*
X543001D01*
X542001Y596498D01*
Y594499D01*
X543001Y593499D01*
X542001Y588501D02*
X547999D01*
X545000Y591500D01*
Y587501D01*
X436098Y581701D02*
Y587699D01*
X433099D01*
X432099Y586699D01*
Y582701D01*
X433099Y581701D01*
X436098D01*
X430100Y587699D02*
Y583700D01*
X428100Y581701D01*
X426101Y583700D01*
Y587699D01*
Y584700D01*
X430100D01*
X424102Y587699D02*
X422102D01*
X423102D01*
Y581701D01*
X424102Y582701D01*
D77*
X508001Y364500D02*
X518001D01*
X508001D02*
Y369500D01*
X518001D01*
Y364500D02*
Y369500D01*
X689001Y278013D02*
X705002D01*
Y246013D02*
Y278013D01*
X689001Y246013D02*
X705002D01*
X689001D02*
Y278013D01*
X692000Y258250D02*
X702000D01*
X697000Y254500D02*
Y269500D01*
X692000Y265750D02*
X702000D01*
X697000Y258250D02*
X702000Y265750D01*
X692000D02*
X697000Y258250D01*
X670500Y268999D02*
Y278999D01*
X675500D01*
Y268999D02*
Y278999D01*
X670500Y268999D02*
X675500D01*
X654500Y269001D02*
Y279001D01*
X649500Y269001D02*
X654500D01*
X649500D02*
Y279001D01*
X654500D01*
X277001Y170500D02*
X287001D01*
X277001D02*
Y175500D01*
X287001D01*
Y170500D02*
Y175500D01*
X273500Y137120D02*
X278500D01*
Y147120D01*
X273500D02*
X278500D01*
X273500Y137120D02*
Y147120D01*
X317880Y343500D02*
X327880D01*
X317880D02*
Y348500D01*
X327880D01*
Y343500D02*
Y348500D01*
X306000Y323500D02*
Y328500D01*
Y323500D02*
X316000D01*
Y328500D01*
X306000D02*
X316000D01*
X750001Y360500D02*
X760001D01*
X750001D02*
Y365500D01*
X760001D01*
Y360500D02*
Y365500D01*
X612000Y309500D02*
X622000D01*
X612000D02*
Y314500D01*
X622000D01*
Y309500D02*
Y314500D01*
X648500Y360000D02*
Y380000D01*
X623500D02*
X648500D01*
X623500Y360000D02*
Y380000D01*
Y360000D02*
X648500D01*
X667500Y352001D02*
Y362001D01*
X672500D01*
Y352001D02*
Y362001D01*
X667500Y352001D02*
X672500D01*
X694500Y352000D02*
X699500D01*
X699500Y362000D02*
X699500Y352000D01*
X694500Y362000D02*
X699500D01*
X694500Y352000D02*
X694500Y362000D01*
X719500Y352000D02*
X724500D01*
Y362000D01*
X719500D02*
X724500D01*
X719500Y352000D02*
Y362000D01*
X536667Y113979D02*
X547981Y102664D01*
X525354Y80037D02*
X547981Y102664D01*
X514039Y91351D02*
X525354Y80037D01*
X514039Y91351D02*
X536667Y113979D01*
X524813Y97884D02*
X531884Y90813D01*
X525697Y91697D02*
X536303Y102303D01*
X530116Y103187D02*
X537187Y96116D01*
X528348Y94348D02*
X537187Y96116D01*
X528348Y94348D02*
X530116Y103187D01*
X565233Y126697D02*
X572304Y133768D01*
X561697Y130233D02*
X565233Y126697D01*
X561697Y130233D02*
X568768Y137304D01*
X572304Y133768D01*
X579998Y403999D02*
Y411999D01*
X563998D02*
X579998D01*
X563998Y403999D02*
Y411999D01*
Y403999D02*
X579998D01*
X568001Y381500D02*
X578001D01*
Y376500D02*
Y381500D01*
X568001Y376500D02*
X578001D01*
X568001D02*
Y381500D01*
X568000Y339500D02*
Y344500D01*
Y339500D02*
X578000D01*
Y344500D01*
X568000D02*
X578000D01*
X476500Y40880D02*
Y50880D01*
X481500D01*
Y40880D02*
Y50880D01*
X476500Y40880D02*
X481500D01*
X476500Y116880D02*
Y126880D01*
X481500D01*
Y116880D02*
Y126880D01*
X476500Y116880D02*
X481500D01*
X274500Y520001D02*
Y530001D01*
X269500Y520001D02*
X274500D01*
X269500D02*
Y530001D01*
X274500D01*
X229999Y533500D02*
X239999D01*
Y528500D02*
Y533500D01*
X229999Y528500D02*
X239999D01*
X229999D02*
Y533500D01*
X800999D02*
X810999D01*
Y528500D02*
Y533500D01*
X800999Y528500D02*
X810999D01*
X800999D02*
Y533500D01*
X823000Y502500D02*
Y507500D01*
X813000D02*
X823000D01*
X813000Y502500D02*
Y507500D01*
Y502500D02*
X823000D01*
X792000Y452470D02*
Y456460D01*
X789000Y452470D02*
Y456460D01*
Y456465D02*
X794500Y456465D01*
X789000Y452465D02*
X794500D01*
X792000Y471470D02*
Y475460D01*
X789000Y471470D02*
Y475460D01*
Y475465D02*
X794500D01*
X789000Y471465D02*
X794500D01*
X810000Y461970D02*
Y465960D01*
X807500Y449500D02*
Y478500D01*
X794500Y449500D02*
Y478500D01*
X813000Y461970D02*
Y465960D01*
X794500Y449500D02*
X807500D01*
Y461965D02*
X813000D01*
X807500Y465965D02*
X813000D01*
X794500Y478500D02*
X807500D01*
X477999Y476500D02*
X487999D01*
Y471500D02*
Y476500D01*
X477999Y471500D02*
X487999D01*
X477999D02*
Y476500D01*
X462251Y452999D02*
Y472999D01*
X449751Y452999D02*
Y472999D01*
X449751D02*
X462251D01*
X449751Y452999D02*
X462251D01*
X289251Y429999D02*
Y449999D01*
X276751Y429999D02*
Y449999D01*
X276751D02*
X289251D01*
X276751Y429999D02*
X289251D01*
X538500Y331999D02*
Y341999D01*
X543500D01*
Y331999D02*
Y341999D01*
X538500Y331999D02*
X543500D01*
X398500Y380999D02*
Y390999D01*
X403500D01*
Y380999D02*
Y390999D01*
X398500Y380999D02*
X403500D01*
X446500Y381120D02*
Y391120D01*
X441500Y381120D02*
X446500D01*
X441500D02*
Y391120D01*
X446500D01*
X466500Y381001D02*
Y391001D01*
X461500Y381001D02*
X466500D01*
X461500D02*
Y391001D01*
X466500D01*
X659001Y528500D02*
X669001D01*
X659001D02*
Y533500D01*
X669001D01*
Y528500D02*
Y533500D01*
X577500Y612999D02*
Y622999D01*
X582500D01*
Y612999D02*
Y622999D01*
X577500Y612999D02*
X582500D01*
X577500Y579999D02*
Y589999D01*
X582500D01*
Y579999D02*
Y589999D01*
X577500Y579999D02*
X582500D01*
X491500Y332120D02*
Y342120D01*
X496500D01*
Y332120D02*
Y342120D01*
X491500Y332120D02*
X496500D01*
X599001Y373500D02*
X609001D01*
X599001D02*
Y378500D01*
X609001D01*
Y373500D02*
Y378500D01*
X724500Y283001D02*
Y293001D01*
X719500Y283001D02*
X724500D01*
X719500D02*
Y293001D01*
X724500D01*
X741500Y283001D02*
Y293001D01*
X736500Y283001D02*
X741500D01*
X736500D02*
Y293001D01*
X741500D01*
X759500Y283001D02*
Y293001D01*
X754500Y283001D02*
X759500D01*
X754500D02*
Y293001D01*
X759500D01*
X421500Y391120D02*
X426500D01*
X421500Y381120D02*
Y391120D01*
Y381120D02*
X426500D01*
Y391120D01*
X477880Y443500D02*
Y448500D01*
Y443500D02*
X487880D01*
Y448500D01*
X477880D02*
X487880D01*
X508500Y199880D02*
X513500D01*
Y209880D01*
X508500D02*
X513500D01*
X508500Y199880D02*
Y209880D01*
X681120Y502500D02*
Y507500D01*
X671120D02*
X681120D01*
X671120Y502500D02*
Y507500D01*
Y502500D02*
X681120D01*
X425500Y463880D02*
X430500D01*
Y473880D01*
X425500D02*
X430500D01*
X425500Y463880D02*
Y473880D01*
X307500Y439880D02*
X312500D01*
Y449880D01*
X307500D02*
X312500D01*
X307500Y439880D02*
Y449880D01*
X609000Y339500D02*
Y344500D01*
X599000D02*
X609000D01*
X599000Y339500D02*
Y344500D01*
Y339500D02*
X609000D01*
X301000Y569500D02*
X333000D01*
X301000Y544500D02*
X333000D01*
Y569500D01*
X301000Y544500D02*
Y569500D01*
X264000Y631000D02*
X296000D01*
Y615000D02*
Y631000D01*
X264000Y615000D02*
X296000D01*
X264000D02*
Y631000D01*
X361999Y523000D02*
X377999D01*
Y515000D02*
Y523000D01*
X361999Y515000D02*
X377999D01*
X361999D02*
Y523000D01*
X417001Y515000D02*
X433001D01*
X417001D02*
Y523000D01*
X433001D01*
Y515000D02*
Y523000D01*
X324999Y587000D02*
X340999D01*
X324999D02*
Y595000D01*
X340999D01*
Y587000D02*
Y595000D01*
X299001Y588500D02*
X309001D01*
X299001D02*
Y593500D01*
X309001D01*
Y588500D02*
Y593500D01*
X653500Y478500D02*
X666500D01*
Y465965D02*
X672000D01*
X666500Y461965D02*
X672000D01*
X653500Y449500D02*
X666500D01*
X672000Y461970D02*
Y465960D01*
X653500Y449500D02*
Y478500D01*
X666500Y449500D02*
Y478500D01*
X669000Y461970D02*
Y465960D01*
X648000Y471465D02*
X653500D01*
X648000Y475465D02*
X653500D01*
X648000Y471470D02*
Y475460D01*
X651000Y471470D02*
Y475460D01*
X648000Y452465D02*
X653500D01*
X648000Y456465D02*
X653500Y456465D01*
X648000Y452470D02*
Y456460D01*
X651000Y452470D02*
Y456460D01*
X364001Y391013D02*
X380002D01*
Y359013D02*
Y391013D01*
X364001Y359013D02*
X380002D01*
X364001D02*
Y391013D01*
X367000Y371250D02*
X377000D01*
X372000Y367500D02*
Y382500D01*
X367000Y378750D02*
X377000D01*
X372000Y371250D02*
X377000Y378750D01*
X367000D02*
X372000Y371250D01*
X496125Y392000D02*
X499875D01*
X496125Y394750D02*
X499875D01*
X483500Y414000D02*
X512500Y414000D01*
X483500Y398000D02*
Y414000D01*
X512500Y398000D02*
Y414000D01*
X483500Y398000D02*
X512500Y398000D01*
X496125Y392000D02*
Y398000D01*
X499875Y392000D02*
Y398000D01*
X486625Y392000D02*
X490375Y392000D01*
X486625Y394750D02*
X490375Y394750D01*
X486625Y392000D02*
Y398000D01*
X490375Y392000D02*
Y398000D01*
X505625Y392000D02*
X509375Y392000D01*
X505625Y394750D02*
X509375Y394750D01*
X505625Y398000D02*
X505625Y392000D01*
X509375Y392000D02*
Y398000D01*
X505625Y420000D02*
X509375D01*
X505625Y417250D02*
X509375D01*
X505625Y414000D02*
X505625Y420000D01*
X509375Y414000D02*
Y420000D01*
X486625D02*
X490375D01*
X486625Y417250D02*
X490375D01*
X486625Y414000D02*
Y420000D01*
X490375Y414000D02*
X490375Y420000D01*
X613000Y287000D02*
X618000Y282000D01*
Y222000D02*
Y282000D01*
X553000Y287000D02*
X613000D01*
X548000Y222000D02*
Y282000D01*
Y222000D02*
X553000Y217000D01*
X548000Y282000D02*
X553000Y287000D01*
X553000Y217000D02*
X613000Y217000D01*
X618000Y222000D01*
X612210Y217000D02*
X612210Y206280D01*
X609670Y206280D02*
X612210Y206280D01*
X609670Y206280D02*
X609670Y217000D01*
Y213900D02*
X612210D01*
X601670Y213900D02*
X604210Y213900D01*
X601670Y217000D02*
X601670Y206280D01*
X604210D01*
Y217000D01*
X588210Y206280D02*
Y217000D01*
X585670Y206280D02*
X588210Y206280D01*
X585670Y206280D02*
Y217000D01*
Y213900D02*
X588210Y213900D01*
X593670Y213900D02*
X596210D01*
X593670Y206280D02*
Y217000D01*
Y206280D02*
X596210Y206280D01*
Y217000D01*
X564210Y206280D02*
Y217000D01*
X561670Y206280D02*
X564210D01*
X561670D02*
Y217000D01*
Y213900D02*
X564210D01*
X553670D02*
X556210D01*
X553670Y206280D02*
Y217000D01*
Y206280D02*
X556210D01*
X556210Y217000D02*
X556210Y206280D01*
X572210D02*
Y217000D01*
X569670Y206280D02*
X572210D01*
X569670D02*
Y217000D01*
Y213900D02*
X572210D01*
X577670D02*
X580210D01*
X577670Y206280D02*
Y217000D01*
Y206280D02*
X580210D01*
Y217000D01*
X537280Y254790D02*
X548000D01*
X537280Y257330D02*
X537280Y254790D01*
X537280Y257330D02*
X548000D01*
X544900Y254790D02*
Y257330D01*
Y262790D02*
X544900Y265330D01*
X537280Y265330D02*
X548000D01*
X537280D02*
X537280Y262790D01*
X548000D01*
X537280Y278790D02*
X548000Y278790D01*
X537280Y281330D02*
X537280Y278790D01*
X537280Y281330D02*
X548000D01*
X544900D02*
X544900Y278790D01*
X544900Y273330D02*
X544900Y270790D01*
X537280Y273330D02*
X548000D01*
X537280D02*
X537280Y270790D01*
X548000D01*
X537280Y238790D02*
X548000D01*
X537280D02*
X537280Y241330D01*
X548000Y241330D01*
X544900Y238790D02*
X544900Y241330D01*
X544900Y246790D02*
Y249330D01*
X537280Y249330D02*
X548000Y249330D01*
X537280Y246790D02*
Y249330D01*
Y246790D02*
X548000Y246790D01*
X537280Y230790D02*
X548000Y230790D01*
X537280Y233330D02*
X537280Y230790D01*
X537280Y233330D02*
X548000Y233330D01*
X544900Y233330D02*
X544900Y230790D01*
X544900Y225330D02*
X544900Y222790D01*
X537280Y225330D02*
X548000Y225330D01*
X537280Y225330D02*
X537280Y222790D01*
X548000Y222790D01*
X585790Y287000D02*
Y297720D01*
X588330Y297720D01*
Y287000D02*
Y297720D01*
X585790Y290100D02*
X588330D01*
X593790D02*
X596330Y290100D01*
Y287000D02*
Y297720D01*
X593790Y297720D02*
X596330Y297720D01*
X593790Y287000D02*
Y297720D01*
X609790Y287000D02*
Y297720D01*
X612330Y297720D01*
Y287000D02*
Y297720D01*
X609790Y290100D02*
X612330Y290100D01*
X601790Y290100D02*
X604330Y290100D01*
Y287000D02*
Y297720D01*
X601790Y297720D02*
X604330Y297720D01*
X601790Y297720D02*
X601790Y287000D01*
X569790Y287000D02*
X569790Y297720D01*
X572330D01*
X572330Y287000D01*
X569790Y290100D02*
X572330D01*
X577790Y290100D02*
X580330D01*
Y287000D02*
Y297720D01*
X577790D02*
X580330D01*
X577790Y287000D02*
X577790Y297720D01*
X561790Y287000D02*
Y297720D01*
X564330Y297720D01*
Y287000D02*
Y297720D01*
X561790Y290100D02*
X564330Y290100D01*
X553790Y290100D02*
X556330Y290100D01*
Y287000D02*
Y297720D01*
X553790Y297720D02*
X556330Y297720D01*
X553790Y287000D02*
Y297720D01*
X618000Y249210D02*
X628720Y249210D01*
X628720Y246670D01*
X618000D02*
X628720D01*
X621100Y246670D02*
Y249210D01*
Y238670D02*
Y241210D01*
X618000Y238670D02*
X628720D01*
X628720Y241210D02*
X628720Y238670D01*
X618000Y241210D02*
X628720D01*
X618000Y225210D02*
X628720Y225210D01*
X628720Y222670D02*
X628720Y225210D01*
X618000Y222670D02*
X628720Y222670D01*
X621100D02*
Y225210D01*
X621100Y230670D02*
Y233210D01*
X618000Y230670D02*
X628720D01*
Y233210D01*
X618000Y233210D02*
X628720Y233210D01*
X618000Y265210D02*
X628720Y265210D01*
X628720Y262670D02*
X628720Y265210D01*
X618000Y262670D02*
X628720Y262670D01*
X621100D02*
Y265210D01*
X621100Y254670D02*
Y257210D01*
X618000Y254670D02*
X628720Y254670D01*
Y257210D01*
X618000Y257210D02*
X628720Y257210D01*
X618000Y273210D02*
X628720D01*
Y270670D02*
Y273210D01*
X618000Y270670D02*
X628720Y270670D01*
X621100D02*
Y273210D01*
Y278670D02*
Y281210D01*
X618000Y278670D02*
X628720Y278670D01*
X628720Y281210D01*
X618000Y281210D02*
X628720Y281210D01*
X386500Y441500D02*
Y506500D01*
X351500D02*
X386500D01*
X351500Y441500D02*
X386500D01*
X386500Y489000D02*
X404000D01*
X396000Y459000D02*
Y489000D01*
X404000D02*
X404000Y459000D01*
X351500Y441500D02*
Y506500D01*
X334000Y493500D02*
Y500500D01*
X342000Y493500D02*
Y500500D01*
X386500Y459000D02*
X404000D01*
X334000Y500500D02*
X351500D01*
X334000Y493500D02*
X351500D01*
X334000Y470500D02*
Y477500D01*
X342000Y470500D02*
Y477500D01*
X334000Y477500D02*
X351500D01*
X334000Y470500D02*
X351500D01*
X334000Y447500D02*
Y454500D01*
X342000Y447500D02*
Y454500D01*
X334000D02*
X351500D01*
X334000Y447500D02*
X351500D01*
X529000Y615998D02*
X561002Y615998D01*
X529000Y617998D02*
X561002D01*
Y565998D02*
Y625998D01*
X529002Y565998D02*
X561002Y565998D01*
X529002Y565998D02*
Y625998D01*
X561002Y625998D01*
X529000Y621998D02*
X561002Y621998D01*
X529000Y619998D02*
X561002D01*
X354100Y539700D02*
Y629700D01*
X504100Y539700D02*
Y629700D01*
X354100Y539700D02*
X504100D01*
X354100Y629700D02*
X504100D01*
M02*
