G04*
G04 #@! TF.GenerationSoftware,Altium Limited,Altium Designer,24.2.2 (26)*
G04*
G04 Layer_Color=8388736*
%FSLAX44Y44*%
%MOMM*%
G71*
G04*
G04 #@! TF.SameCoordinates,CC1128A4-4406-4156-BFDA-932D597DC64E*
G04*
G04*
G04 #@! TF.FilePolarity,Negative*
G04*
G01*
G75*
%ADD39R,0.9250X0.8500*%
%ADD40C,0.8300*%
%ADD41R,1.7000X1.7000*%
%ADD42R,0.8500X0.9250*%
%ADD43R,1.2500X1.1500*%
%ADD44P,2.4042X4X270.0*%
G04:AMPARAMS|DCode=45|XSize=0.925mm|YSize=0.85mm|CornerRadius=0mm|HoleSize=0mm|Usage=FLASHONLY|Rotation=225.000|XOffset=0mm|YOffset=0mm|HoleType=Round|Shape=Rectangle|*
%AMROTATEDRECTD45*
4,1,4,0.0265,0.6276,0.6276,0.0265,-0.0265,-0.6276,-0.6276,-0.0265,0.0265,0.6276,0.0*
%
%ADD45ROTATEDRECTD45*%

G04:AMPARAMS|DCode=46|XSize=1mm|YSize=0.9mm|CornerRadius=0.275mm|HoleSize=0mm|Usage=FLASHONLY|Rotation=90.000|XOffset=0mm|YOffset=0mm|HoleType=Round|Shape=RoundedRectangle|*
%AMROUNDEDRECTD46*
21,1,1.0000,0.3500,0,0,90.0*
21,1,0.4500,0.9000,0,0,90.0*
1,1,0.5500,0.1750,0.2250*
1,1,0.5500,0.1750,-0.2250*
1,1,0.5500,-0.1750,-0.2250*
1,1,0.5500,-0.1750,0.2250*
%
%ADD46ROUNDEDRECTD46*%
G04:AMPARAMS|DCode=47|XSize=0.75mm|YSize=1mm|CornerRadius=0.2375mm|HoleSize=0mm|Usage=FLASHONLY|Rotation=270.000|XOffset=0mm|YOffset=0mm|HoleType=Round|Shape=RoundedRectangle|*
%AMROUNDEDRECTD47*
21,1,0.7500,0.5250,0,0,270.0*
21,1,0.2750,1.0000,0,0,270.0*
1,1,0.4750,-0.2625,-0.1375*
1,1,0.4750,-0.2625,0.1375*
1,1,0.4750,0.2625,0.1375*
1,1,0.4750,0.2625,-0.1375*
%
%ADD47ROUNDEDRECTD47*%
%ADD48R,1.4500X1.2000*%
%ADD49R,1.8000X2.5000*%
%ADD50R,1.7000X1.9000*%
%ADD51R,1.2000X1.0000*%
%ADD52O,0.7500X1.2000*%
%ADD53O,1.2000X0.6000*%
%ADD54O,0.6000X1.2000*%
%ADD55R,2.3500X1.1500*%
%ADD56R,2.3500X3.4500*%
G04:AMPARAMS|DCode=57|XSize=2.2mm|YSize=2.6mm|CornerRadius=0.35mm|HoleSize=0mm|Usage=FLASHONLY|Rotation=270.000|XOffset=0mm|YOffset=0mm|HoleType=Round|Shape=RoundedRectangle|*
%AMROUNDEDRECTD57*
21,1,2.2000,1.9000,0,0,270.0*
21,1,1.5000,2.6000,0,0,270.0*
1,1,0.7000,-0.9500,-0.7500*
1,1,0.7000,-0.9500,0.7500*
1,1,0.7000,0.9500,0.7500*
1,1,0.7000,0.9500,-0.7500*
%
%ADD57ROUNDEDRECTD57*%
%ADD58C,1.6000*%
%ADD59R,1.6000X1.6000*%
%ADD60R,1.6000X1.6000*%
%ADD61R,1.4000X1.4000*%
%ADD62C,1.4000*%
%ADD63R,2.8000X2.8000*%
%ADD64C,2.8000*%
G04:AMPARAMS|DCode=65|XSize=2.8mm|YSize=2.8mm|CornerRadius=0mm|HoleSize=0mm|Usage=FLASHONLY|Rotation=270.000|XOffset=0mm|YOffset=0mm|HoleType=Round|Shape=Octagon|*
%AMOCTAGOND65*
4,1,8,-0.7000,-1.4000,0.7000,-1.4000,1.4000,-0.7000,1.4000,0.7000,0.7000,1.4000,-0.7000,1.4000,-1.4000,0.7000,-1.4000,-0.7000,-0.7000,-1.4000,0.0*
%
%ADD65OCTAGOND65*%

%ADD66C,1.8000*%
%ADD67R,1.8000X1.8000*%
%ADD68C,1.2400*%
G36*
X488993Y398493D02*
X489121Y398468D01*
X489122Y398468D01*
X489821Y398280D01*
X489821Y398280D01*
X489945Y398238D01*
X489948Y398237D01*
X490062Y398180D01*
X490063Y398180D01*
X490689Y397818D01*
X490690Y397818D01*
X490799Y397745D01*
X490897Y397659D01*
X490897Y397659D01*
X491409Y397147D01*
X491409Y397147D01*
X491496Y397048D01*
X491568Y396939D01*
X491568Y396939D01*
X491930Y396312D01*
X491930Y396312D01*
X491988Y396195D01*
X491999Y396163D01*
X492031Y396071D01*
X492031Y396070D01*
X492218Y395371D01*
X492218Y395371D01*
X492243Y395243D01*
X492252Y395112D01*
Y395112D01*
D01*
Y394750D01*
Y387500D01*
X492243Y387369D01*
X492218Y387240D01*
X492176Y387116D01*
X492118Y386999D01*
X492045Y386890D01*
X491959Y386791D01*
X491860Y386705D01*
X491751Y386632D01*
X491633Y386574D01*
X491509Y386532D01*
X491381Y386506D01*
X491250Y386498D01*
X485750D01*
X485619Y386506D01*
X485491Y386532D01*
X485367Y386574D01*
X485249Y386632D01*
X485140Y386705D01*
X485041Y386791D01*
X484955Y386890D01*
X484882Y386999D01*
X484824Y387116D01*
X484782Y387240D01*
X484756Y387369D01*
X484748Y387500D01*
Y394750D01*
Y395112D01*
Y395112D01*
Y395112D01*
X484756Y395243D01*
X484782Y395371D01*
X484782Y395371D01*
X484969Y396070D01*
X484969Y396071D01*
X485012Y396195D01*
X485013Y396198D01*
X485070Y396312D01*
X485070Y396312D01*
X485432Y396939D01*
X485432Y396939D01*
X485504Y397048D01*
X485591Y397147D01*
X485591Y397147D01*
X486103Y397659D01*
X486103Y397659D01*
X486201Y397745D01*
X486310Y397818D01*
X486311Y397818D01*
X486937Y398180D01*
X486937Y398180D01*
X487055Y398238D01*
X487086Y398249D01*
X487179Y398280D01*
X487179Y398280D01*
X487878Y398468D01*
X487879Y398468D01*
X488007Y398493D01*
X488138Y398502D01*
X488138D01*
D01*
X488862D01*
X488862D01*
X488862D01*
X488993Y398493D01*
D02*
G37*
G36*
X613131Y299993D02*
X613259Y299968D01*
X613383Y299926D01*
X613501Y299868D01*
X613610Y299795D01*
X613709Y299708D01*
X613795Y299610D01*
X613868Y299501D01*
X613926Y299383D01*
X613968Y299259D01*
X613993Y299131D01*
X614002Y299000D01*
Y291000D01*
X614002Y290998D01*
X614002Y290803D01*
X614000Y290770D01*
Y290737D01*
X613996Y290705D01*
X613993Y290672D01*
X613987Y290640D01*
X613983Y290607D01*
X613906Y290221D01*
X613897Y290189D01*
X613891Y290157D01*
X613881Y290126D01*
X613872Y290094D01*
X613859Y290064D01*
X613849Y290033D01*
X613698Y289669D01*
X613684Y289640D01*
X613671Y289609D01*
X613655Y289580D01*
X613640Y289551D01*
X613622Y289524D01*
X613605Y289496D01*
X613387Y289168D01*
X613367Y289142D01*
X613349Y289115D01*
X613327Y289090D01*
X613307Y289064D01*
X613284Y289041D01*
X613262Y289016D01*
X612984Y288738D01*
X612959Y288716D01*
X612936Y288693D01*
X612910Y288673D01*
X612885Y288651D01*
X612858Y288633D01*
X612832Y288613D01*
X612504Y288394D01*
X612476Y288378D01*
X612448Y288360D01*
X612419Y288345D01*
X612391Y288329D01*
X612360Y288316D01*
X612331Y288302D01*
X611967Y288151D01*
X611936Y288140D01*
X611905Y288128D01*
X611874Y288119D01*
X611843Y288109D01*
X611811Y288102D01*
X611779Y288094D01*
X611392Y288017D01*
X611360Y288013D01*
X611328Y288006D01*
X611295Y288004D01*
X611263Y288000D01*
X611230D01*
X611197Y287998D01*
X611000D01*
X610999Y287998D01*
X610803Y287998D01*
X610770Y288000D01*
X610737D01*
X610705Y288004D01*
X610672Y288006D01*
X610640Y288013D01*
X610607Y288017D01*
X610221Y288094D01*
X610189Y288102D01*
X610157Y288109D01*
X610126Y288119D01*
X610094Y288128D01*
X610064Y288140D01*
X610033Y288151D01*
X609669Y288302D01*
X609640Y288316D01*
X609609Y288329D01*
X609581Y288345D01*
X609552Y288360D01*
X609524Y288378D01*
X609496Y288394D01*
X609168Y288613D01*
X609142Y288633D01*
X609115Y288651D01*
X609090Y288673D01*
X609064Y288693D01*
X609041Y288716D01*
X609016Y288738D01*
X608738Y289016D01*
X608716Y289041D01*
X608693Y289064D01*
X608673Y289090D01*
X608651Y289115D01*
X608633Y289142D01*
X608613Y289168D01*
X608394Y289496D01*
X608378Y289524D01*
X608360Y289551D01*
X608345Y289581D01*
X608329Y289609D01*
X608316Y289640D01*
X608302Y289669D01*
X608151Y290033D01*
X608140Y290064D01*
X608128Y290094D01*
X608119Y290126D01*
X608109Y290157D01*
X608102Y290189D01*
X608094Y290221D01*
X608017Y290607D01*
X608013Y290640D01*
X608006Y290672D01*
X608004Y290705D01*
X608000Y290737D01*
Y290770D01*
X607998Y290803D01*
X607998Y291000D01*
Y299000D01*
X608006Y299131D01*
X608032Y299259D01*
X608074Y299383D01*
X608132Y299501D01*
X608205Y299610D01*
X608291Y299708D01*
X608390Y299795D01*
X608499Y299868D01*
X608616Y299926D01*
X608741Y299968D01*
X608869Y299993D01*
X609000Y300002D01*
X613000D01*
X613131Y299993D01*
D02*
G37*
D39*
X507121Y367000D02*
D03*
X518881D02*
D03*
X276121Y173000D02*
D03*
X287881D02*
D03*
X317000Y346000D02*
D03*
X328760D02*
D03*
X305120Y326000D02*
D03*
X316880D02*
D03*
X749121Y363000D02*
D03*
X760881D02*
D03*
X611120Y312000D02*
D03*
X622880D02*
D03*
X578881Y379000D02*
D03*
X567121D02*
D03*
X567120Y342000D02*
D03*
X578880D02*
D03*
X240879Y531000D02*
D03*
X229119D02*
D03*
X811879D02*
D03*
X800119D02*
D03*
X823880Y505000D02*
D03*
X812120D02*
D03*
X488879Y474000D02*
D03*
X477119D02*
D03*
X658121Y531000D02*
D03*
X669881D02*
D03*
X598121Y376000D02*
D03*
X609881D02*
D03*
X477000Y446000D02*
D03*
X488760D02*
D03*
X682000Y505000D02*
D03*
X670240D02*
D03*
X609880Y342000D02*
D03*
X598120D02*
D03*
X298121Y591000D02*
D03*
X309881D02*
D03*
D40*
X429100Y546600D02*
D03*
X365600D02*
D03*
X365600Y559300D02*
D03*
X365600Y572000D02*
D03*
Y597400D02*
D03*
Y610100D02*
D03*
X365600Y622800D02*
D03*
X378300Y546600D02*
D03*
Y559300D02*
D03*
Y572000D02*
D03*
Y597400D02*
D03*
Y610100D02*
D03*
Y622800D02*
D03*
X391000Y546600D02*
D03*
Y559300D02*
D03*
Y572000D02*
D03*
Y597400D02*
D03*
Y610100D02*
D03*
Y622800D02*
D03*
X403700Y546600D02*
D03*
Y559300D02*
D03*
Y572000D02*
D03*
X416400Y546600D02*
D03*
Y559300D02*
D03*
X416400Y572000D02*
D03*
X416400Y584700D02*
D03*
Y597400D02*
D03*
X416400Y610100D02*
D03*
X416400Y622800D02*
D03*
X429100Y559300D02*
D03*
X429100Y572000D02*
D03*
Y584700D02*
D03*
Y597400D02*
D03*
Y610100D02*
D03*
X429100Y622800D02*
D03*
X441800Y546600D02*
D03*
Y559300D02*
D03*
Y572000D02*
D03*
Y584700D02*
D03*
Y597400D02*
D03*
Y610100D02*
D03*
Y622800D02*
D03*
X454500Y546600D02*
D03*
Y559300D02*
D03*
X454500Y572000D02*
D03*
X454500Y584700D02*
D03*
Y597400D02*
D03*
Y610100D02*
D03*
Y622800D02*
D03*
X467200Y546600D02*
D03*
Y559300D02*
D03*
Y572000D02*
D03*
Y584700D02*
D03*
Y597400D02*
D03*
Y610100D02*
D03*
Y622800D02*
D03*
X479900Y546600D02*
D03*
Y559300D02*
D03*
X479900Y572000D02*
D03*
X479900Y584700D02*
D03*
Y597400D02*
D03*
Y610100D02*
D03*
Y622800D02*
D03*
X492600Y546600D02*
D03*
X492600Y559300D02*
D03*
X492600Y572000D02*
D03*
Y584700D02*
D03*
Y597400D02*
D03*
Y610100D02*
D03*
X492600Y622800D02*
D03*
D41*
X697000Y279500D02*
D03*
Y244500D02*
D03*
X372000Y392500D02*
D03*
Y357500D02*
D03*
D42*
X673000Y279879D02*
D03*
Y268119D02*
D03*
X652000Y268121D02*
D03*
Y279881D02*
D03*
X276000Y136240D02*
D03*
Y148000D02*
D03*
X670000Y362881D02*
D03*
Y351121D02*
D03*
X697000Y351120D02*
D03*
Y362880D02*
D03*
X722000Y351120D02*
D03*
Y362880D02*
D03*
X479000Y51760D02*
D03*
Y40000D02*
D03*
Y127760D02*
D03*
Y116000D02*
D03*
X272000Y519121D02*
D03*
Y530881D02*
D03*
X541000Y342879D02*
D03*
Y331119D02*
D03*
X401000Y391879D02*
D03*
Y380119D02*
D03*
X444000Y380240D02*
D03*
Y392000D02*
D03*
X464000Y380121D02*
D03*
Y391881D02*
D03*
X580000Y623879D02*
D03*
Y612119D02*
D03*
Y590879D02*
D03*
Y579119D02*
D03*
X494000Y343000D02*
D03*
Y331240D02*
D03*
X722000Y282121D02*
D03*
Y293881D02*
D03*
X739000Y282121D02*
D03*
Y293881D02*
D03*
X757000Y282121D02*
D03*
Y293881D02*
D03*
X424000Y392000D02*
D03*
Y380240D02*
D03*
X511000Y199000D02*
D03*
Y210760D02*
D03*
X428000Y463000D02*
D03*
Y474760D02*
D03*
X310000Y439000D02*
D03*
Y450760D02*
D03*
D43*
X645250Y377250D02*
D03*
X626750Y362750D02*
D03*
X645250Y362750D02*
D03*
X626750Y377250D02*
D03*
D44*
X543374Y109374D02*
D03*
X518626Y84625D02*
D03*
D45*
X562843Y127843D02*
D03*
X571158Y136158D02*
D03*
D46*
X578999Y407999D02*
D03*
X564999D02*
D03*
D47*
X790150Y473525D02*
D03*
X811850Y464000D02*
D03*
X790150Y454475D02*
D03*
X649150D02*
D03*
X670850Y464000D02*
D03*
X649150Y473525D02*
D03*
D48*
X456001Y473999D02*
D03*
Y451999D02*
D03*
X283001Y450999D02*
D03*
Y428999D02*
D03*
D49*
X298000Y557000D02*
D03*
X336000D02*
D03*
D50*
X297500Y623000D02*
D03*
X262500D02*
D03*
D51*
X378500Y518999D02*
D03*
X361500D02*
D03*
X416500Y519001D02*
D03*
X433500D02*
D03*
X324498Y591001D02*
D03*
X341498D02*
D03*
D52*
X498000Y392500D02*
D03*
X507500Y419500D02*
D03*
X507500Y392500D02*
D03*
X488500Y419500D02*
D03*
D53*
X625000Y272000D02*
D03*
X541000Y272000D02*
D03*
X625000Y224000D02*
D03*
Y232000D02*
D03*
X625000Y240000D02*
D03*
Y248000D02*
D03*
Y256000D02*
D03*
Y264000D02*
D03*
X625000Y280000D02*
D03*
X541000Y224000D02*
D03*
X541000Y232000D02*
D03*
Y240000D02*
D03*
Y264000D02*
D03*
Y256000D02*
D03*
Y248000D02*
D03*
X541000Y280000D02*
D03*
D54*
X555000Y210000D02*
D03*
X563000Y210000D02*
D03*
X571000D02*
D03*
X579000D02*
D03*
X587000D02*
D03*
X595000D02*
D03*
X611000Y210000D02*
D03*
X603000Y210000D02*
D03*
X595000Y294000D02*
D03*
X603000Y294000D02*
D03*
X587000Y294000D02*
D03*
X579000D02*
D03*
X571000D02*
D03*
X563000D02*
D03*
X555000D02*
D03*
D55*
X340000Y497000D02*
D03*
Y451000D02*
D03*
Y474000D02*
D03*
D56*
X398000D02*
D03*
D57*
X545000Y569000D02*
D03*
Y623000D02*
D03*
D58*
X299000Y51000D02*
D03*
X400000Y229000D02*
D03*
Y203600D02*
D03*
X197400Y51000D02*
D03*
X222800D02*
D03*
X248200D02*
D03*
X273600D02*
D03*
X456898Y229201D02*
D03*
Y203801D02*
D03*
X429000Y76800D02*
D03*
Y102200D02*
D03*
Y280000D02*
D03*
Y254600D02*
D03*
Y203800D02*
D03*
Y178400D02*
D03*
Y127600D02*
D03*
Y305400D02*
D03*
Y229200D02*
D03*
Y153000D02*
D03*
Y51400D02*
D03*
X787000Y613000D02*
D03*
X837000D02*
D03*
X812000Y613500D02*
D03*
X645000Y613000D02*
D03*
X695000D02*
D03*
X670000Y613500D02*
D03*
D59*
X400000Y254400D02*
D03*
X456898Y254601D02*
D03*
X429000Y330800D02*
D03*
D60*
X172000Y51000D02*
D03*
D61*
X329000Y173000D02*
D03*
Y293000D02*
D03*
D62*
Y148000D02*
D03*
Y123000D02*
D03*
Y268000D02*
D03*
Y243000D02*
D03*
D63*
X236000Y487000D02*
D03*
X170000Y387000D02*
D03*
X229000Y587000D02*
D03*
X170000D02*
D03*
Y487000D02*
D03*
D64*
X236000Y451000D02*
D03*
X170000Y347000D02*
D03*
X229000Y623000D02*
D03*
X170000Y547000D02*
D03*
Y447000D02*
D03*
D65*
X852000Y580500D02*
D03*
X772000D02*
D03*
X710000D02*
D03*
X630000D02*
D03*
D66*
X786000Y294000D02*
D03*
Y268000D02*
D03*
Y243000D02*
D03*
Y218000D02*
D03*
D67*
Y193000D02*
D03*
D68*
X521000Y229000D02*
D03*
M02*
