M48
;Layer_Color=9474304
;FILE_FORMAT=4:4
METRIC,LZ
;TYPE=PLATED
T01F00S00C0.5000
T02F00S00C0.8000
T03F00S00C1.0000
T04F00S00C2.0000
T05F00S00C2.2000
%
T01
X0025Y00232
X0048Y00255
X00493Y00274
X00508Y00282
X00521Y00229
X00558Y00232
X0055947Y00264575
X00572Y00272
X00593Y00257
X00607Y0025
X00639Y00268
X0067Y00247
X00696Y00221
X00722Y00232
X00739Y00265
X0048Y00087
X00465Y00357
X00522Y0035
X00536Y00367
X00535Y00417
X00522Y00474
X00587Y00444
X00605Y00502
X00695Y00464
X0067Y00417
X0061Y00362
X00598Y00329
X00633
X005685Y00323
X00554Y00324
X00735Y00502
X00766Y00474
X00777Y00531
X00297
X0025Y00392
T02
X00329Y00123
Y00148
Y00173
Y00243
Y00268
Y00293
T03
X00172Y00051
X001974
X002228
X002482
X002736
X00299
X00429Y000514
Y000768
Y001022
Y001276
Y00153
Y001784
Y002038
Y002292
Y002546
Y0028
X00456898Y00254601
Y00229201
Y00203801
X004Y002036
Y00229
Y002544
X00786Y00243
Y00268
Y00218
Y00193
X00812Y006135
X00837Y00613
X00787
X00695
X0067Y006135
X00645Y00613
X00786Y00294
X00429Y003054
Y003308
T04
X0017Y00347
Y00387
Y00447
Y00487
Y00547
Y00587
X00229
Y00623
X00236Y00487
Y00451
T05
X00852Y005805
X00772
X0071
X0063
M30
